<svg width="19" height="29" viewBox="0 0 19 29" fill="none" xmlns="http://www.w3.org/2000/svg">
<path d="M14.25 17.3469C17.2056 15.7469 19 12.7469 19 9.54687C19 6.34688 17.2056 3.34688 14.25 1.74688C12.8778 0.946875 11.1889 0.546875 9.5 0.546875C4.22222 0.546875 0 4.54688 0 9.54688C0 14.1469 3.69444 18.0469 8.44444 18.4469C8.44444 18.4469 8.44444 18.4469 8.44444 18.5469V21.8469C6.65 19.8469 4.01111 18.5469 1.05556 18.5469C0.527778 18.5469 0 19.0469 0 19.5469C0 24.5469 4.22222 28.5469 9.5 28.5469C14.6722 28.5469 19 24.5469 19 19.5469C19 19.0469 18.4722 18.5469 17.9444 18.5469C14.9889 18.5469 12.35 19.8469 10.5556 21.9469V18.5469C10.5556 18.5469 10.5556 18.5469 10.5556 18.4469C11.8222 18.3469 13.0889 17.9469 14.25 17.3469ZM9.5 14.5469C8.97222 14.5469 8.44444 14.0469 8.44444 13.5469H7.38889C6.86111 13.5469 6.33333 13.0469 6.33333 12.5469C6.33333 12.0469 6.86111 11.5469 7.38889 11.5469H10.0278C10.3444 11.5469 10.5556 11.3469 10.5556 11.0469C10.5556 10.7469 10.3444 10.5469 10.0278 10.5469H8.97222C7.49444 10.5469 6.33333 9.44687 6.33333 8.04688C6.33333 6.84688 7.28333 5.84688 8.44444 5.54687C8.44444 5.04687 8.97222 4.54688 9.5 4.54688C10.0278 4.54688 10.5556 5.04687 10.5556 5.54687H11.6111C12.1389 5.54687 12.6667 6.04687 12.6667 6.54687C12.6667 7.04687 12.1389 7.54687 11.6111 7.54687H8.97222C8.65556 7.54687 8.44444 7.74687 8.44444 8.04688C8.44444 8.34688 8.65556 8.54688 8.97222 8.54688H10.0278C11.5056 8.54688 12.6667 9.64688 12.6667 11.0469C12.6667 12.2469 11.7167 13.2469 10.5556 13.5469C10.5556 14.0469 10.0278 14.5469 9.5 14.5469Z" fill="#1A75B5"/>
</svg>
