<svg width="91" height="29" viewBox="0 0 91 29" fill="none" xmlns="http://www.w3.org/2000/svg">
<path d="M14.25 17.3469C17.2056 15.7469 19 12.7469 19 9.54687C19 6.34688 17.2056 3.34688 14.25 1.74688C12.8778 0.946875 11.1889 0.546875 9.5 0.546875C4.22222 0.546875 0 4.54688 0 9.54688C0 14.1469 3.69444 18.0469 8.44444 18.4469C8.44444 18.4469 8.44444 18.4469 8.44444 18.5469V21.8469C6.65 19.8469 4.01111 18.5469 1.05556 18.5469C0.527778 18.5469 0 19.0469 0 19.5469C0 24.5469 4.22222 28.5469 9.5 28.5469C14.6722 28.5469 19 24.5469 19 19.5469C19 19.0469 18.4722 18.5469 17.9444 18.5469C14.9889 18.5469 12.35 19.8469 10.5556 21.9469V18.5469C10.5556 18.5469 10.5556 18.5469 10.5556 18.4469C11.8222 18.3469 13.0889 17.9469 14.25 17.3469ZM9.5 14.5469C8.97222 14.5469 8.44444 14.0469 8.44444 13.5469H7.38889C6.86111 13.5469 6.33333 13.0469 6.33333 12.5469C6.33333 12.0469 6.86111 11.5469 7.38889 11.5469H10.0278C10.3444 11.5469 10.5556 11.3469 10.5556 11.0469C10.5556 10.7469 10.3444 10.5469 10.0278 10.5469H8.97222C7.49444 10.5469 6.33333 9.44687 6.33333 8.04688C6.33333 6.84688 7.28333 5.84688 8.44444 5.54687C8.44444 5.04687 8.97222 4.54688 9.5 4.54688C10.0278 4.54688 10.5556 5.04687 10.5556 5.54687H11.6111C12.1389 5.54687 12.6667 6.04687 12.6667 6.54687C12.6667 7.04687 12.1389 7.54687 11.6111 7.54687H8.97222C8.65556 7.54687 8.44444 7.74687 8.44444 8.04688C8.44444 8.34688 8.65556 8.54688 8.97222 8.54688H10.0278C11.5056 8.54688 12.6667 9.64688 12.6667 11.0469C12.6667 12.2469 11.7167 13.2469 10.5556 13.5469C10.5556 14.0469 10.0278 14.5469 9.5 14.5469Z" fill="#1A75B5"/>
<path d="M38.25 17.3469C41.2056 15.7469 43 12.7469 43 9.54687C43 6.34688 41.2056 3.34688 38.25 1.74688C36.8778 0.946875 35.1889 0.546875 33.5 0.546875C28.2222 0.546875 24 4.54688 24 9.54688C24 14.1469 27.6944 18.0469 32.4444 18.4469C32.4444 18.4469 32.4444 18.4469 32.4444 18.5469V21.8469C30.65 19.8469 28.0111 18.5469 25.0556 18.5469C24.5278 18.5469 24 19.0469 24 19.5469C24 24.5469 28.2222 28.5469 33.5 28.5469C38.6722 28.5469 43 24.5469 43 19.5469C43 19.0469 42.4722 18.5469 41.9444 18.5469C38.9889 18.5469 36.35 19.8469 34.5556 21.9469V18.5469C34.5556 18.5469 34.5556 18.5469 34.5556 18.4469C35.8222 18.3469 37.0889 17.9469 38.25 17.3469ZM33.5 14.5469C32.9722 14.5469 32.4444 14.0469 32.4444 13.5469H31.3889C30.8611 13.5469 30.3333 13.0469 30.3333 12.5469C30.3333 12.0469 30.8611 11.5469 31.3889 11.5469H34.0278C34.3444 11.5469 34.5556 11.3469 34.5556 11.0469C34.5556 10.7469 34.3444 10.5469 34.0278 10.5469H32.9722C31.4944 10.5469 30.3333 9.44687 30.3333 8.04688C30.3333 6.84688 31.2833 5.84688 32.4444 5.54687C32.4444 5.04687 32.9722 4.54688 33.5 4.54688C34.0278 4.54688 34.5556 5.04687 34.5556 5.54687H35.6111C36.1389 5.54687 36.6667 6.04687 36.6667 6.54687C36.6667 7.04687 36.1389 7.54687 35.6111 7.54687H32.9722C32.6556 7.54687 32.4444 7.74687 32.4444 8.04688C32.4444 8.34688 32.6556 8.54688 32.9722 8.54688H34.0278C35.5056 8.54688 36.6667 9.64688 36.6667 11.0469C36.6667 12.2469 35.7167 13.2469 34.5556 13.5469C34.5556 14.0469 34.0278 14.5469 33.5 14.5469Z" fill="#1A75B5"/>
<path d="M62.25 17.3469C65.2056 15.7469 67 12.7469 67 9.54687C67 6.34688 65.2056 3.34688 62.25 1.74688C60.8778 0.946875 59.1889 0.546875 57.5 0.546875C52.2222 0.546875 48 4.54688 48 9.54688C48 14.1469 51.6944 18.0469 56.4444 18.4469C56.4444 18.4469 56.4444 18.4469 56.4444 18.5469V21.8469C54.65 19.8469 52.0111 18.5469 49.0556 18.5469C48.5278 18.5469 48 19.0469 48 19.5469C48 24.5469 52.2222 28.5469 57.5 28.5469C62.6722 28.5469 67 24.5469 67 19.5469C67 19.0469 66.4722 18.5469 65.9444 18.5469C62.9889 18.5469 60.35 19.8469 58.5556 21.9469V18.5469C58.5556 18.5469 58.5556 18.5469 58.5556 18.4469C59.8222 18.3469 61.0889 17.9469 62.25 17.3469ZM57.5 14.5469C56.9722 14.5469 56.4444 14.0469 56.4444 13.5469H55.3889C54.8611 13.5469 54.3333 13.0469 54.3333 12.5469C54.3333 12.0469 54.8611 11.5469 55.3889 11.5469H58.0278C58.3444 11.5469 58.5556 11.3469 58.5556 11.0469C58.5556 10.7469 58.3444 10.5469 58.0278 10.5469H56.9722C55.4944 10.5469 54.3333 9.44687 54.3333 8.04688C54.3333 6.84688 55.2833 5.84688 56.4444 5.54687C56.4444 5.04687 56.9722 4.54688 57.5 4.54688C58.0278 4.54688 58.5556 5.04687 58.5556 5.54687H59.6111C60.1389 5.54687 60.6667 6.04687 60.6667 6.54687C60.6667 7.04687 60.1389 7.54687 59.6111 7.54687H56.9722C56.6556 7.54687 56.4444 7.74687 56.4444 8.04688C56.4444 8.34688 56.6556 8.54688 56.9722 8.54688H58.0278C59.5056 8.54688 60.6667 9.64688 60.6667 11.0469C60.6667 12.2469 59.7167 13.2469 58.5556 13.5469C58.5556 14.0469 58.0278 14.5469 57.5 14.5469Z" fill="#1A75B5"/>
<path d="M86.25 17.3469C89.2056 15.7469 91 12.7469 91 9.54687C91 6.34688 89.2056 3.34688 86.25 1.74688C84.8778 0.946875 83.1889 0.546875 81.5 0.546875C76.2222 0.546875 72 4.54688 72 9.54688C72 14.1469 75.6944 18.0469 80.4444 18.4469C80.4444 18.4469 80.4444 18.4469 80.4444 18.5469V21.8469C78.65 19.8469 76.0111 18.5469 73.0556 18.5469C72.5278 18.5469 72 19.0469 72 19.5469C72 24.5469 76.2222 28.5469 81.5 28.5469C86.6722 28.5469 91 24.5469 91 19.5469C91 19.0469 90.4722 18.5469 89.9444 18.5469C86.9889 18.5469 84.35 19.8469 82.5556 21.9469V18.5469C82.5556 18.5469 82.5556 18.5469 82.5556 18.4469C83.8222 18.3469 85.0889 17.9469 86.25 17.3469ZM81.5 14.5469C80.9722 14.5469 80.4444 14.0469 80.4444 13.5469H79.3889C78.8611 13.5469 78.3333 13.0469 78.3333 12.5469C78.3333 12.0469 78.8611 11.5469 79.3889 11.5469H82.0278C82.3444 11.5469 82.5556 11.3469 82.5556 11.0469C82.5556 10.7469 82.3444 10.5469 82.0278 10.5469H80.9722C79.4944 10.5469 78.3333 9.44687 78.3333 8.04688C78.3333 6.84688 79.2833 5.84688 80.4444 5.54687C80.4444 5.04687 80.9722 4.54688 81.5 4.54688C82.0278 4.54688 82.5556 5.04687 82.5556 5.54687H83.6111C84.1389 5.54687 84.6667 6.04687 84.6667 6.54687C84.6667 7.04687 84.1389 7.54687 83.6111 7.54687H80.9722C80.6556 7.54687 80.4444 7.74687 80.4444 8.04688C80.4444 8.34688 80.6556 8.54688 80.9722 8.54688H82.0278C83.5056 8.54688 84.6667 9.64688 84.6667 11.0469C84.6667 12.2469 83.7167 13.2469 82.5556 13.5469C82.5556 14.0469 82.0278 14.5469 81.5 14.5469Z" fill="#1A75B5"/>
</svg>
