<svg width="48" height="45" viewBox="0 0 48 45" fill="none" xmlns="http://www.w3.org/2000/svg">
<path d="M23.6445 7.23048C19.532 7.22506 15.5743 8.72286 12.5888 11.4146C9.60333 14.1063 7.81801 17.7863 7.60156 21.6947H9.2903C9.42468 19.6766 10.0282 17.7121 11.0572 15.9429C12.0862 14.1737 13.5152 12.644 15.2408 11.4642C16.9665 10.2844 18.9459 9.48388 21.0361 9.12047C23.1263 8.75705 25.2752 8.83979 27.3278 9.3627C29.3803 9.88562 31.2852 10.8357 32.9051 12.1443C34.525 13.4529 35.8194 15.0875 36.6949 16.93C37.5704 18.7725 38.0052 20.777 37.9678 22.7989C37.9305 24.8207 37.4219 26.8094 36.4789 28.6215L37.9481 29.4251C39.1935 27.097 39.7904 24.5037 39.6816 21.8934C39.5728 19.283 38.7621 16.7429 37.3269 14.5159C35.8918 12.289 33.8802 10.4498 31.4846 9.17422C29.089 7.89865 26.3896 7.2294 23.6445 7.23048V7.23048Z" fill="#09DE94"/>
<path d="M23.6452 23.3018C24.1115 23.3018 24.4895 22.9422 24.4895 22.4985C24.4895 22.0549 24.1115 21.6953 23.6452 21.6953C23.1788 21.6953 22.8008 22.0549 22.8008 22.4985C22.8008 22.9422 23.1788 23.3018 23.6452 23.3018Z" fill="#09DE94"/>
<path d="M27.2684 41.3769C27.3425 41.2548 27.3815 41.1162 27.3815 40.9751C27.3815 40.8341 27.3425 40.6955 27.2684 40.5734L16.7644 24.3412C16.6887 24.2249 16.583 24.129 16.4574 24.0624C16.3318 23.9959 16.1904 23.9609 16.0467 23.9609C15.9029 23.9609 15.7616 23.9959 15.636 24.0624C15.5104 24.129 15.4047 24.2249 15.329 24.3412L4.84189 40.5653C4.76411 40.6869 4.72166 40.826 4.71889 40.9683C4.71613 41.1107 4.75314 41.2511 4.82615 41.3754C4.89916 41.4996 5.00555 41.6032 5.13442 41.6755C5.26329 41.7478 5.41002 41.7862 5.55961 41.7867H26.5338C26.6834 41.7865 26.8302 41.7484 26.9593 41.6764C27.0884 41.6044 27.195 41.5011 27.2684 41.3769ZM16.0467 40.9832C15.5457 40.9832 15.0559 40.8418 14.6394 40.5769C14.2228 40.312 13.8981 39.9355 13.7064 39.495C13.5147 39.0545 13.4645 38.5698 13.5622 38.1022C13.66 37.6345 13.9012 37.205 14.2555 36.8678C14.6098 36.5307 15.0611 36.3011 15.5525 36.2081C16.0439 36.115 16.5532 36.1628 17.0161 36.3453C17.4789 36.5277 17.8745 36.8367 18.1529 37.2331C18.4312 37.6296 18.5798 38.0957 18.5798 38.5725C18.5798 39.2118 18.3129 39.825 17.8379 40.2771C17.3628 40.7292 16.7185 40.9832 16.0467 40.9832ZM18.5798 29.8617L17.8705 33.8796C17.7985 34.2883 17.5766 34.6595 17.2443 34.9272C16.9119 35.1949 16.4906 35.3418 16.0551 35.3418C15.6197 35.3418 15.1984 35.1949 14.866 34.9272C14.5336 34.6595 14.3117 34.2883 14.2397 33.8796L13.5305 29.8617C13.5203 29.8195 13.5147 29.7765 13.5136 29.7332C13.5136 29.0938 13.7805 28.4806 14.2555 28.0285C14.7306 27.5764 15.3749 27.3225 16.0467 27.3225C16.7185 27.3225 17.3628 27.5764 17.8379 28.0285C18.3129 28.4806 18.5798 29.0938 18.5798 29.7332C18.5842 29.7759 18.5842 29.819 18.5798 29.8617V29.8617Z" fill="#09DE94"/>
<path d="M23.6443 7.12579e-06C19.1706 -0.000344129 14.7885 1.20732 11.0072 3.4827C7.22594 5.75808 4.20063 9.00778 2.28273 12.8543C0.364841 16.7008 -0.366911 20.9863 0.172485 25.2128C0.711881 29.4393 2.50028 33.4335 5.32994 36.7313L13.8919 23.4964C14.119 23.1476 14.436 22.8597 14.8128 22.6601C15.1896 22.4604 15.6137 22.3556 16.045 22.3556C16.4763 22.3556 16.9004 22.4604 17.2772 22.6601C17.654 22.8597 17.971 23.1476 18.1981 23.4964L28.7105 39.7205C28.9472 40.0872 29.0764 40.5075 29.0847 40.9378C29.0931 41.3681 28.9802 41.7926 28.7579 42.1674C28.5356 42.5421 28.212 42.8534 27.8205 43.0689C27.4291 43.2844 26.9842 43.3963 26.5321 43.3929H14.8882C18.1236 44.6236 21.6048 45.1585 25.0827 44.9594C28.5607 44.7603 31.9494 43.8321 35.0064 42.2412C38.0634 40.6503 40.7131 38.436 42.766 35.7568C44.8189 33.0776 46.2242 29.9997 46.8813 26.7433C47.5384 23.4869 47.431 20.1326 46.567 16.9203C45.7029 13.708 44.1035 10.7171 41.8832 8.16174C39.6628 5.60635 36.8764 3.54959 33.7234 2.13862C30.5703 0.727659 27.1286 -0.00263168 23.6443 7.12579e-06V7.12579e-06ZM45.066 17.8714L42.6258 18.4821L42.2205 16.9393L44.6691 16.3125L45.066 17.8714ZM42.2205 11.3545L43.0648 12.7527L40.8695 13.958L40.0251 12.5598L42.2205 11.3545ZM38.5559 7.15983L39.7465 8.29286L37.9986 9.99644L36.7827 8.83929L38.5559 7.15983ZM33.8865 4.01786L35.3557 4.82144L34.0892 6.91072L32.62 6.10715L33.8865 4.01786ZM28.5079 2.1134L30.146 2.52322L29.4874 4.82144L27.8662 4.43572L28.5079 2.1134ZM22.8 1.60715H24.4887V4.01786H22.8V1.60715ZM18.7808 2.1134L19.4225 4.43572L17.8013 4.82144L17.1427 2.49108L18.7808 2.1134ZM13.4021 4.01786L14.6687 6.10715L13.1995 6.91072L11.9329 4.82144L13.4021 4.01786ZM8.71586 7.1759L10.5059 8.83929L9.29003 9.99644L7.49997 8.29286L8.71586 7.1759ZM4.22381 23.3036H1.6907V21.6964H4.22381V23.3036ZM4.66289 18.4821L2.22266 17.8634L2.65329 16.3045L5.10196 16.9313L4.66289 18.4821ZM4.22381 12.7527L5.06818 11.3545L7.26355 12.5598L6.41918 13.958L4.22381 12.7527ZM25.6708 23.9304C25.3118 24.3849 24.7956 24.704 24.2133 24.8314C23.631 24.9587 23.0201 24.8861 22.4887 24.6263C21.9572 24.3665 21.5393 23.9363 21.3089 23.4117C21.0784 22.8871 21.0502 22.3019 21.2293 21.7594C21.4083 21.2169 21.7831 20.7522 22.2874 20.4472C22.7917 20.1422 23.393 20.0167 23.9851 20.0929C24.5772 20.169 25.1219 20.4418 25.5231 20.8632C25.9243 21.2846 26.156 21.8273 26.1774 22.3955L34.866 24.9107L34.3763 26.5179L25.6708 23.9304ZM38.2688 31.3393C38.1209 31.3403 37.9753 31.3042 37.8466 31.2348L34.9251 29.6277C34.8282 29.575 34.7432 29.5045 34.6751 29.4204C34.607 29.3363 34.5571 29.2401 34.5283 29.1375C34.4994 29.0354 34.4921 28.9289 34.5065 28.8241C34.521 28.7193 34.5571 28.6183 34.6127 28.5268C35.5842 26.9256 36.1556 25.1332 36.2827 23.2883C36.4099 21.4433 36.0893 19.5953 35.3459 17.8871C34.6025 16.1789 33.4561 14.6563 31.9954 13.4372C30.5348 12.2181 28.799 11.3352 26.9225 10.8566C25.0459 10.3781 23.0788 10.3168 21.1733 10.6775C19.2678 11.0383 17.4751 11.8113 15.9338 12.9369C14.3925 14.0625 13.144 15.5104 12.2848 17.1687C11.4255 18.8269 10.9787 20.6511 10.9788 22.5C10.9788 22.7131 10.8898 22.9175 10.7315 23.0682C10.5731 23.2189 10.3583 23.3036 10.1344 23.3036H6.75692C6.53298 23.3036 6.31822 23.2189 6.15986 23.0682C6.00151 22.9175 5.91255 22.7131 5.91255 22.5C5.91333 19.912 6.53956 17.3589 7.74282 15.038C8.94608 12.7172 10.6941 10.6908 12.8518 9.11564C15.0094 7.54045 17.5188 6.45865 20.186 5.9539C22.8531 5.44915 25.6065 5.53498 28.2333 6.20474C30.86 6.8745 33.2897 8.11026 35.3344 9.81643C37.3791 11.5226 38.984 13.6535 40.0251 16.0443C41.0663 18.4351 41.5156 21.0218 41.3384 23.6042C41.1613 26.1867 40.3623 28.6958 39.0034 30.9375C38.929 31.0601 38.8219 31.1619 38.6929 31.2324C38.5639 31.303 38.4176 31.3399 38.2688 31.3393V31.3393ZM42.2205 33.6455L40.0251 32.4402L40.8695 31.042L43.0648 32.2473L42.2205 33.6455ZM44.6185 28.6875L42.2205 28.0607L42.6258 26.5179L45.066 27.1366L44.6185 28.6875ZM43.0648 23.3036V21.6964H45.5979V23.3036H43.0648Z" fill="#09DE94"/>
<path d="M16.0475 39.376C16.5138 39.376 16.8919 39.0164 16.8919 38.5728C16.8919 38.1291 16.5138 37.7695 16.0475 37.7695C15.5812 37.7695 15.2031 38.1291 15.2031 38.5728C15.2031 39.0164 15.5812 39.376 16.0475 39.376Z" fill="#09DE94"/>
<path d="M16.0475 28.9297C15.8334 28.9292 15.6272 29.0061 15.4704 29.1447C15.3136 29.2834 15.2181 29.4736 15.2031 29.6767L15.8955 33.6286C15.9063 33.6588 15.9267 33.6851 15.954 33.7037C15.9812 33.7223 16.0139 33.7323 16.0475 33.7323C16.0811 33.7323 16.1138 33.7223 16.141 33.7037C16.1683 33.6851 16.1887 33.6588 16.1995 33.6286L16.8919 29.6767C16.8769 29.4736 16.7814 29.2834 16.6246 29.1447C16.4678 29.0061 16.2616 28.9292 16.0475 28.9297V28.9297Z" fill="#09DE94"/>
</svg>
