<svg width="46" height="44" viewBox="0 0 46 44" fill="none" xmlns="http://www.w3.org/2000/svg">
<path d="M41.1806 9.90255H33.0779V3.82831C33.0779 1.7355 31.4574 0 29.5032 0H15.7764C13.8222 0 12.2017 1.7355 12.2017 3.82831V9.90255H4.099C1.85885 9.90255 0 11.8422 0 14.2923V39.6102C0 42.0093 1.81118 44 4.099 44H41.2283C43.4684 44 45.3273 42.0603 45.3273 39.6102V14.2923C45.2796 11.8933 43.4684 9.90255 41.1806 9.90255ZM17.3016 5.46172H27.978V9.90255H17.3016V5.46172ZM24.2603 35.5777V37.7216C24.2603 38.0278 24.022 38.2831 23.736 38.2831H21.5436C21.2576 38.2831 21.0193 38.0278 21.0193 37.7216V35.6288C19.0174 35.3225 17.4446 33.536 17.2539 31.3921C17.2539 31.239 17.3016 31.0858 17.3969 30.9327C17.4922 30.8306 17.6352 30.7285 17.7782 30.7285H19.9707C20.209 30.7285 20.4473 30.9327 20.495 31.1879C20.638 31.7494 21.1146 32.1578 21.6389 32.1578H23.3071C24.165 32.1578 24.9276 31.4432 25.0229 30.5754C25.0706 30.065 24.9276 29.6056 24.594 29.2483C24.308 28.8909 23.8314 28.6868 23.4024 28.6868H22.0202C19.4464 28.6868 17.2539 26.594 17.0156 23.9907C16.7773 21.2854 18.5408 18.8353 21.0193 18.3248V16.181C21.0193 15.8747 21.2576 15.6195 21.5436 15.6195H23.736C24.022 15.6195 24.2603 15.8747 24.2603 16.181V18.2738C26.2622 18.58 27.835 20.3666 28.0257 22.5104C28.0257 22.6636 27.978 22.8167 27.8827 22.9698C27.7874 23.0719 27.6444 23.174 27.5014 23.174H25.3089C25.0706 23.174 24.8323 22.9698 24.7846 22.7146C24.6416 22.1531 24.165 21.7448 23.6407 21.7448H21.9725C21.1146 21.7448 20.352 22.4594 20.2567 23.3271C20.209 23.8376 20.352 24.297 20.6856 24.6543C20.9716 25.0116 21.4482 25.2158 21.8772 25.2158H23.4024C24.7846 25.2158 26.0715 25.8283 27.0248 26.9513C27.978 28.0742 28.407 29.5035 28.264 30.9838C28.0734 33.2297 26.4052 35.1183 24.2603 35.5777Z" fill="#16538A"/>
</svg>
