<svg width="50" height="50" viewBox="0 0 50 50" fill="none" xmlns="http://www.w3.org/2000/svg">
<path d="M42.3856 21.9069H32.0706C31.824 21.9069 31.5874 21.8089 31.413 21.6345C31.2386 21.4601 31.1406 21.2235 31.1406 20.9769C31.1406 20.7302 31.2386 20.4937 31.413 20.3193C31.5874 20.1449 31.824 20.0469 32.0706 20.0469H42.3856C42.6323 20.0469 42.8688 20.1449 43.0432 20.3193C43.2176 20.4937 43.3156 20.7302 43.3156 20.9769C43.3156 21.2235 43.2176 21.4601 43.0432 21.6345C42.8688 21.8089 42.6323 21.9069 42.3856 21.9069Z" fill="#439D5B"/>
<path d="M42.3835 25.7403H32.0685C31.9409 25.7497 31.8128 25.7327 31.6922 25.6903C31.5715 25.6479 31.4609 25.5811 31.3673 25.4941C31.2736 25.407 31.1989 25.3016 31.1478 25.1844C31.0967 25.0672 31.0703 24.9407 31.0703 24.8128C31.0703 24.6849 31.0967 24.5584 31.1478 24.4412C31.1989 24.324 31.2736 24.2186 31.3673 24.1315C31.4609 24.0445 31.5715 23.9777 31.6922 23.9353C31.8128 23.893 31.9409 23.8759 32.0685 23.8853H42.3835C42.511 23.8759 42.6391 23.893 42.7597 23.9353C42.8804 23.9777 42.991 24.0445 43.0847 24.1315C43.1783 24.2186 43.253 24.324 43.3041 24.4412C43.3552 24.5584 43.3816 24.6849 43.3816 24.8128C43.3816 24.9407 43.3552 25.0672 43.3041 25.1844C43.253 25.3016 43.1783 25.407 43.0847 25.4941C42.991 25.5811 42.8804 25.6479 42.7597 25.6903C42.6391 25.7327 42.511 25.7497 42.3835 25.7403V25.7403Z" fill="#439D5B"/>
<path d="M38.4685 29.5763H32.0685C31.9409 29.5856 31.8128 29.5686 31.6922 29.5262C31.5715 29.4839 31.4609 29.4171 31.3673 29.33C31.2736 29.243 31.1989 29.1376 31.1478 29.0203C31.0967 28.9031 31.0703 28.7766 31.0703 28.6487C31.0703 28.5209 31.0967 28.3944 31.1478 28.2772C31.1989 28.1599 31.2736 28.0545 31.3673 27.9675C31.4609 27.8804 31.5715 27.8136 31.6922 27.7713C31.8128 27.7289 31.9409 27.7119 32.0685 27.7213H38.4685C38.596 27.7119 38.7241 27.7289 38.8447 27.7713C38.9654 27.8136 39.076 27.8804 39.1697 27.9675C39.2633 28.0545 39.338 28.1599 39.3891 28.2772C39.4402 28.3944 39.4666 28.5209 39.4666 28.6487C39.4666 28.7766 39.4402 28.9031 39.3891 29.0203C39.338 29.1376 39.2633 29.243 39.1697 29.33C39.076 29.4171 38.9654 29.4839 38.8447 29.5262C38.7241 29.5686 38.596 29.5856 38.4685 29.5763V29.5763Z" fill="#439D5B"/>
<path d="M25.7608 13.725C25.7608 18.445 21.9358 24.135 17.2208 24.135C12.5058 24.135 8.67578 18.445 8.67578 13.725C8.72973 11.4952 9.65343 9.37485 11.2496 7.81685C12.8457 6.25886 14.9878 5.38672 17.2183 5.38672C19.4488 5.38672 21.5908 6.25886 23.187 7.81685C24.7831 9.37485 25.7068 11.4952 25.7608 13.725Z" fill="#439D5B"/>
<path d="M33.435 38.4498C33.435 45.4148 29.05 44.8048 17.22 44.8048C4.84 44.8048 1 45.4148 1 38.4498C1 31.4848 10.255 25.8398 17.22 25.8398C24.185 25.8398 33.435 31.4998 33.435 38.4498Z" fill="#439D5B"/>
<path d="M44.9062 13.2853H20.0013C18.9287 13.2759 17.8961 13.6914 17.1288 14.4408C16.3616 15.1903 15.9221 16.2129 15.9062 17.2853V19.4253H17.8012V17.3053C17.8065 16.7267 18.0411 16.1738 18.4536 15.7679C18.866 15.362 19.4226 15.1363 20.0013 15.1403H44.9013C45.4799 15.1363 46.0365 15.362 46.4489 15.7679C46.8614 16.1738 47.096 16.7267 47.1012 17.3053V32.3053C47.1032 32.5941 47.0478 32.8804 46.9382 33.1477C46.8286 33.4149 46.667 33.6576 46.4628 33.8619C46.2586 34.0661 46.0158 34.2277 45.7486 34.3373C45.4814 34.4469 45.1951 34.5023 44.9062 34.5003H20.0013C19.715 34.5029 19.431 34.4492 19.1655 34.342C18.9 34.2349 18.6582 34.0766 18.4539 33.876C18.2496 33.6754 18.0868 33.4365 17.9748 33.1731C17.8628 32.9096 17.8039 32.6266 17.8012 32.3403V27.6803H15.9113V32.3203C15.9271 33.3927 16.3666 34.4154 17.1338 35.1648C17.9011 35.9143 18.9337 36.3297 20.0062 36.3203H44.9062C45.9788 36.3297 47.0114 35.9143 47.7787 35.1648C48.5459 34.4154 48.9854 33.3927 49.0013 32.3203V17.3203C48.998 16.7863 48.8894 16.2582 48.6817 15.7662C48.474 15.2742 48.1713 14.828 47.7909 14.4532C47.4105 14.0784 46.9599 13.7823 46.4649 13.5819C45.9699 13.3815 45.4403 13.2807 44.9062 13.2853V13.2853Z" fill="#439D5B"/>
</svg>
