<svg width="593" height="1024" viewBox="0 0 593 1024" fill="none" xmlns="http://www.w3.org/2000/svg">
<rect width="593" height="1024" fill="#2E8C47"/>
<path d="M297.249 760.271C297.247 760.158 297.268 760.046 297.311 759.941C297.353 759.836 297.416 759.741 297.496 759.661C297.576 759.581 297.67 759.517 297.775 759.475C297.879 759.432 297.991 759.411 298.104 759.413H335.668C338.495 759.41 341.206 758.281 343.206 756.274C345.206 754.267 346.33 751.546 346.333 748.707V732.678C346.333 732.451 346.423 732.232 346.584 732.071C346.744 731.91 346.962 731.82 347.189 731.82C347.416 731.82 347.633 731.91 347.794 732.071C347.954 732.232 348.044 732.451 348.044 732.678V748.707C348.038 752 346.732 755.156 344.413 757.485C342.093 759.813 338.948 761.124 335.668 761.13H298.104C297.877 761.13 297.66 761.039 297.499 760.878C297.339 760.717 297.249 760.499 297.249 760.271Z" fill="white" fill-opacity="0.1"/>
<path d="M317.941 840.692V781.476C317.941 781.248 318.031 781.03 318.191 780.869C318.352 780.708 318.569 780.617 318.796 780.617C319.023 780.617 319.241 780.708 319.401 780.869C319.562 781.03 319.652 781.248 319.652 781.476V840.692C319.655 844.667 321.229 848.478 324.028 851.29C326.827 854.102 330.623 855.684 334.584 855.69C338.997 855.693 343.228 857.454 346.349 860.586C349.469 863.718 351.224 867.966 351.227 872.395V907.212C351.227 907.44 351.136 907.659 350.976 907.82C350.815 907.981 350.598 908.071 350.371 908.071C350.144 908.071 349.926 907.981 349.766 907.82C349.606 907.659 349.515 907.44 349.515 907.212V872.349C349.512 868.375 347.938 864.565 345.139 861.755C342.339 858.945 338.543 857.365 334.584 857.362C330.177 857.356 325.953 855.599 322.834 852.475C319.715 849.351 317.956 845.114 317.941 840.692Z" fill="white" fill-opacity="0.1"/>
<path d="M92.3239 652.103C92.3224 651.989 92.3434 651.877 92.3859 651.772C92.4283 651.667 92.4913 651.572 92.5711 651.492C92.6508 651.412 92.7457 651.349 92.8502 651.306C92.9547 651.264 93.0666 651.242 93.1794 651.244H130.743C133.571 651.241 136.282 650.112 138.281 648.105C140.281 646.098 141.405 643.377 141.408 640.539V624.51C141.408 624.282 141.499 624.064 141.659 623.903C141.82 623.741 142.037 623.651 142.264 623.651C142.491 623.651 142.709 623.741 142.869 623.903C143.029 624.064 143.12 624.282 143.12 624.51V640.539C143.113 643.832 141.808 646.988 139.488 649.316C137.168 651.645 134.023 652.955 130.743 652.961H93.1794C92.9525 652.961 92.7349 652.871 92.5744 652.71C92.414 652.549 92.3239 652.33 92.3239 652.103Z" fill="white" fill-opacity="0.1"/>
<path d="M113.016 732.523V673.307C113.016 673.08 113.106 672.861 113.267 672.7C113.427 672.539 113.645 672.449 113.872 672.449C114.098 672.449 114.316 672.539 114.476 672.7C114.637 672.861 114.727 673.08 114.727 673.307V732.523C114.73 736.498 116.304 740.31 119.103 743.121C121.902 745.933 125.699 747.516 129.659 747.522C134.072 747.525 138.303 749.286 141.424 752.418C144.544 755.55 146.299 759.797 146.302 764.226V799.044C146.302 799.272 146.212 799.49 146.051 799.651C145.891 799.812 145.673 799.903 145.446 799.903C145.219 799.903 145.002 799.812 144.841 799.651C144.681 799.49 144.591 799.272 144.591 799.044V764.181C144.588 760.207 143.014 756.396 140.214 753.586C137.414 750.776 133.618 749.197 129.659 749.193C125.253 749.187 121.028 747.43 117.909 744.306C114.79 741.182 113.031 736.946 113.016 732.523Z" fill="white" fill-opacity="0.1"/>
<path d="M169.591 888.165C169.589 888.052 169.61 887.939 169.653 887.834C169.695 887.73 169.758 887.634 169.838 887.554C169.918 887.474 170.013 887.411 170.117 887.368C170.222 887.326 170.334 887.305 170.446 887.306H208.01C210.838 887.303 213.549 886.174 215.548 884.167C217.548 882.161 218.672 879.439 218.675 876.601V860.572C218.675 860.344 218.765 860.126 218.926 859.965C219.086 859.804 219.304 859.713 219.531 859.713C219.758 859.713 219.975 859.804 220.136 859.965C220.296 860.126 220.386 860.344 220.386 860.572V876.601C220.38 879.894 219.074 883.05 216.755 885.378C214.435 887.707 211.29 889.018 208.01 889.024H170.446C170.219 889.024 170.002 888.933 169.841 888.772C169.681 888.611 169.591 888.393 169.591 888.165Z" fill="white" fill-opacity="0.1"/>
<path d="M324.125 603.745C324.123 603.632 324.144 603.519 324.187 603.414C324.229 603.309 324.292 603.214 324.372 603.134C324.451 603.054 324.546 602.991 324.651 602.948C324.755 602.906 324.867 602.885 324.98 602.886H362.543C365.371 602.883 368.082 601.754 370.082 599.747C372.081 597.74 373.206 595.019 373.209 592.181V576.152C373.209 575.924 373.299 575.706 373.46 575.545C373.62 575.384 373.838 575.293 374.065 575.293C374.292 575.293 374.509 575.384 374.67 575.545C374.83 575.706 374.92 575.924 374.92 576.152V592.181C374.914 595.474 373.608 598.63 371.288 600.958C368.969 603.287 365.824 604.598 362.543 604.604H324.98C324.753 604.604 324.536 604.513 324.375 604.352C324.215 604.191 324.125 603.973 324.125 603.745Z" fill="white" fill-opacity="0.1"/>
<path d="M344.817 684.166V624.95C344.817 624.722 344.907 624.504 345.067 624.342C345.228 624.181 345.445 624.091 345.672 624.091C345.899 624.091 346.117 624.181 346.277 624.342C346.438 624.504 346.528 624.722 346.528 624.95V684.166C346.531 688.141 348.105 691.952 350.904 694.764C353.703 697.576 357.499 699.158 361.46 699.164C365.873 699.167 370.104 700.928 373.225 704.06C376.345 707.192 378.099 711.439 378.102 715.869V750.686C378.102 750.914 378.012 751.132 377.852 751.293C377.691 751.454 377.474 751.545 377.247 751.545C377.02 751.545 376.802 751.454 376.642 751.293C376.481 751.132 376.391 750.914 376.391 750.686V715.823C376.388 711.849 374.814 708.039 372.015 705.229C369.215 702.419 365.419 700.839 361.46 700.836C357.053 700.83 352.829 699.073 349.71 695.949C346.591 692.825 344.832 688.588 344.817 684.166Z" fill="white" fill-opacity="0.1"/>
<path d="M119.199 495.576C119.197 495.462 119.218 495.35 119.261 495.245C119.303 495.14 119.366 495.045 119.446 494.965C119.526 494.885 119.621 494.822 119.725 494.779C119.83 494.736 119.942 494.715 120.054 494.717H157.618C160.446 494.714 163.157 493.585 165.156 491.578C167.156 489.571 168.28 486.85 168.283 484.012V467.983C168.283 467.755 168.374 467.536 168.534 467.375C168.694 467.214 168.912 467.124 169.139 467.124C169.366 467.124 169.583 467.214 169.744 467.375C169.904 467.536 169.994 467.755 169.994 467.983V484.012C169.988 487.305 168.682 490.461 166.363 492.789C164.043 495.117 160.898 496.428 157.618 496.434H120.054C119.827 496.434 119.61 496.344 119.449 496.183C119.289 496.022 119.199 495.803 119.199 495.576Z" fill="white" fill-opacity="0.1"/>
<path d="M139.891 575.996V516.78C139.891 516.553 139.981 516.334 140.141 516.173C140.302 516.012 140.52 515.922 140.746 515.922C140.973 515.922 141.191 516.012 141.351 516.173C141.512 516.334 141.602 516.553 141.602 516.78V575.996C141.605 579.971 143.179 583.783 145.978 586.595C148.777 589.406 152.573 590.989 156.534 590.995C160.947 590.998 165.178 592.759 168.299 595.891C171.419 599.023 173.174 603.27 173.177 607.7V642.517C173.177 642.745 173.087 642.963 172.926 643.124C172.766 643.285 172.548 643.376 172.321 643.376C172.094 643.376 171.877 643.285 171.716 643.124C171.556 642.963 171.466 642.745 171.466 642.517V607.654C171.463 603.68 169.888 599.87 167.089 597.06C164.289 594.25 160.493 592.67 156.534 592.667C152.128 592.661 147.903 590.903 144.784 587.779C141.665 584.655 139.906 580.419 139.891 575.996Z" fill="white" fill-opacity="0.1"/>
<path d="M347.64 789.54C347.638 789.427 347.659 789.315 347.702 789.21C347.744 789.105 347.807 789.01 347.887 788.93C347.966 788.85 348.061 788.787 348.166 788.744C348.27 788.701 348.382 788.68 348.495 788.682H386.059C388.886 788.679 391.597 787.55 393.597 785.543C395.596 783.536 396.721 780.815 396.724 777.977V761.947C396.724 761.72 396.814 761.501 396.975 761.34C397.135 761.179 397.353 761.089 397.58 761.089C397.807 761.089 398.024 761.179 398.185 761.34C398.345 761.501 398.435 761.72 398.435 761.947V777.977C398.429 781.269 397.123 784.426 394.803 786.754C392.484 789.082 389.339 790.393 386.059 790.399H348.495C348.268 790.399 348.051 790.309 347.89 790.148C347.73 789.987 347.64 789.768 347.64 789.54Z" fill="white" fill-opacity="0.1"/>
<path d="M368.332 869.961V810.745C368.332 810.517 368.422 810.299 368.582 810.138C368.743 809.977 368.96 809.886 369.187 809.886C369.414 809.886 369.632 809.977 369.792 810.138C369.953 810.299 370.043 810.517 370.043 810.745V869.961C370.046 873.936 371.62 877.747 374.419 880.559C377.218 883.371 381.014 884.954 384.975 884.96C389.388 884.963 393.619 886.724 396.74 889.856C399.86 892.988 401.614 897.235 401.617 901.664V936.482C401.617 936.709 401.527 936.928 401.367 937.089C401.206 937.25 400.989 937.34 400.762 937.34C400.535 937.34 400.317 937.25 400.157 937.089C399.997 936.928 399.906 936.709 399.906 936.482V901.618C399.903 897.645 398.329 893.834 395.53 891.024C392.73 888.214 388.934 886.634 384.975 886.631C380.568 886.625 376.344 884.868 373.225 881.744C370.106 878.62 368.347 874.384 368.332 869.961Z" fill="white" fill-opacity="0.1"/>
<path d="M142.715 681.372C142.713 681.258 142.734 681.146 142.777 681.041C142.819 680.936 142.882 680.841 142.962 680.761C143.042 680.681 143.137 680.618 143.241 680.575C143.346 680.533 143.458 680.511 143.57 680.513H181.134C183.962 680.51 186.673 679.381 188.672 677.374C190.672 675.367 191.796 672.646 191.799 669.808V653.779C191.799 653.551 191.89 653.333 192.05 653.172C192.21 653.011 192.428 652.92 192.655 652.92C192.882 652.92 193.099 653.011 193.26 653.172C193.42 653.333 193.51 653.551 193.51 653.779V669.808C193.504 673.101 192.199 676.257 189.879 678.585C187.559 680.914 184.414 682.224 181.134 682.23H143.57C143.343 682.23 143.126 682.14 142.965 681.979C142.805 681.818 142.715 681.599 142.715 681.372Z" fill="white" fill-opacity="0.1"/>
<path d="M163.407 761.792V702.576C163.407 702.349 163.497 702.13 163.658 701.969C163.818 701.808 164.036 701.718 164.263 701.718C164.489 701.718 164.707 701.808 164.867 701.969C165.028 702.13 165.118 702.349 165.118 702.576V761.792C165.121 765.767 166.695 769.579 169.494 772.391C172.293 775.202 176.09 776.785 180.05 776.791C184.463 776.794 188.694 778.555 191.815 781.687C194.935 784.819 196.69 789.066 196.693 793.496V828.313C196.693 828.541 196.603 828.759 196.442 828.92C196.282 829.081 196.064 829.172 195.837 829.172C195.61 829.172 195.393 829.081 195.232 828.92C195.072 828.759 194.982 828.541 194.982 828.313V793.45C194.979 789.476 193.405 785.666 190.605 782.856C187.805 780.046 184.009 778.466 180.05 778.463C175.644 778.456 171.419 776.699 168.3 773.575C165.181 770.451 163.422 766.215 163.407 761.792Z" fill="white" fill-opacity="0.1"/>
<path d="M219.982 917.434C219.98 917.321 220.001 917.209 220.044 917.104C220.086 916.999 220.149 916.904 220.229 916.823C220.309 916.743 220.404 916.68 220.508 916.638C220.613 916.595 220.724 916.574 220.837 916.575H258.401C261.228 916.572 263.94 915.444 265.939 913.437C267.939 911.43 269.063 908.709 269.066 905.87V889.841C269.066 889.613 269.156 889.395 269.317 889.234C269.477 889.073 269.695 888.982 269.922 888.982C270.149 888.982 270.366 889.073 270.527 889.234C270.687 889.395 270.777 889.613 270.777 889.841V905.87C270.771 909.163 269.465 912.319 267.146 914.648C264.826 916.976 261.681 918.287 258.401 918.293H220.837C220.61 918.293 220.393 918.202 220.232 918.041C220.072 917.88 219.982 917.662 219.982 917.434Z" fill="white" fill-opacity="0.1"/>
<path d="M374.516 633.014C374.514 632.901 374.535 632.788 374.578 632.683C374.62 632.579 374.683 632.483 374.763 632.403C374.842 632.323 374.937 632.26 375.042 632.217C375.146 632.175 375.258 632.154 375.371 632.155H412.934C415.762 632.152 418.473 631.023 420.473 629.016C422.472 627.009 423.597 624.288 423.6 621.45V605.421C423.6 605.193 423.69 604.975 423.851 604.814C424.011 604.653 424.229 604.562 424.456 604.562C424.682 604.562 424.9 604.653 425.061 604.814C425.221 604.975 425.311 605.193 425.311 605.421V621.45C425.305 624.743 423.999 627.899 421.679 630.227C419.36 632.556 416.215 633.867 412.934 633.873H375.371C375.144 633.873 374.927 633.782 374.766 633.621C374.606 633.46 374.516 633.242 374.516 633.014Z" fill="white" fill-opacity="0.1"/>
<path d="M395.208 713.435V654.219C395.208 653.991 395.298 653.773 395.458 653.612C395.619 653.45 395.836 653.36 396.063 653.36C396.29 653.36 396.508 653.45 396.668 653.612C396.829 653.773 396.919 653.991 396.919 654.219V713.435C396.922 717.41 398.495 721.221 401.295 724.033C404.094 726.845 407.89 728.427 411.85 728.433C416.264 728.436 420.495 730.197 423.615 733.329C426.736 736.461 428.49 740.708 428.493 745.138V779.955C428.493 780.183 428.403 780.401 428.243 780.562C428.082 780.723 427.865 780.814 427.638 780.814C427.411 780.814 427.193 780.723 427.033 780.562C426.872 780.401 426.782 780.183 426.782 779.955V745.092C426.779 741.118 425.205 737.308 422.406 734.498C419.606 731.688 415.81 730.108 411.85 730.105C407.444 730.099 403.22 728.342 400.101 725.218C396.982 722.094 395.223 717.857 395.208 713.435Z" fill="white" fill-opacity="0.1"/>
<path d="M15.057 809.265C15.0554 809.152 15.0765 809.04 15.119 808.935C15.1614 808.83 15.2244 808.735 15.3041 808.655C15.3839 808.575 15.4788 808.511 15.5833 808.469C15.6878 808.426 15.7997 808.405 15.9125 808.407H53.476C56.3037 808.404 59.0148 807.275 61.0143 805.268C63.0139 803.261 64.1385 800.54 64.1415 797.702V781.672C64.1415 781.445 64.2317 781.226 64.3922 781.065C64.5526 780.904 64.7702 780.814 64.9971 780.814C65.224 780.814 65.4416 780.904 65.6021 781.065C65.7625 781.226 65.8526 781.445 65.8526 781.672V797.702C65.8466 800.994 64.5407 804.15 62.2209 806.479C59.9011 808.807 56.7566 810.118 53.476 810.124H15.9125C15.6856 810.124 15.468 810.034 15.3076 809.873C15.1471 809.712 15.057 809.493 15.057 809.265Z" fill="white" fill-opacity="0.1"/>
<path d="M35.7491 889.686V830.47C35.7491 830.242 35.8392 830.024 35.9997 829.863C36.1601 829.702 36.3777 829.611 36.6046 829.611C36.8315 829.611 37.0491 829.702 37.2096 829.863C37.37 830.024 37.4602 830.242 37.4602 830.47V889.686C37.4632 893.661 39.0369 897.472 41.8362 900.284C44.6355 903.096 48.4317 904.679 52.392 904.685C56.805 904.688 61.0364 906.449 64.1569 909.581C67.2774 912.713 69.0319 916.96 69.0349 921.389V956.207C69.0349 956.434 68.9448 956.653 68.7843 956.814C68.6239 956.975 68.4063 957.065 68.1794 957.065C67.9525 957.065 67.7349 956.975 67.5744 956.814C67.414 956.653 67.3238 956.434 67.3238 956.207V921.343C67.3208 917.369 65.7466 913.559 62.947 910.749C60.1474 907.939 56.3512 906.359 52.392 906.356C47.9858 906.35 43.7613 904.593 40.6424 901.469C37.5235 898.345 35.7642 894.108 35.7491 889.686Z" fill="white" fill-opacity="0.1"/>
<path d="M169.591 524.845C169.589 524.732 169.61 524.62 169.653 524.515C169.695 524.41 169.758 524.315 169.838 524.234C169.918 524.154 170.013 524.091 170.117 524.049C170.222 524.006 170.334 523.985 170.446 523.986H208.01C210.838 523.983 213.549 522.855 215.548 520.848C217.548 518.841 218.672 516.119 218.675 513.281V497.252C218.675 497.024 218.765 496.806 218.926 496.645C219.086 496.484 219.304 496.394 219.531 496.394C219.758 496.394 219.975 496.484 220.136 496.645C220.296 496.806 220.386 497.024 220.386 497.252V513.281C220.38 516.574 219.074 519.73 216.755 522.059C214.435 524.387 211.29 525.698 208.01 525.704H170.446C170.219 525.704 170.002 525.613 169.841 525.452C169.681 525.291 169.591 525.073 169.591 524.845Z" fill="white" fill-opacity="0.1"/>
<path d="M190.283 605.266V546.05C190.283 545.822 190.373 545.604 190.533 545.443C190.694 545.282 190.912 545.191 191.138 545.191C191.365 545.191 191.583 545.282 191.743 545.443C191.904 545.604 191.994 545.822 191.994 546.05V605.266C191.997 609.241 193.571 613.052 196.37 615.864C199.169 618.676 202.965 620.258 206.926 620.265C211.339 620.268 215.57 622.028 218.691 625.161C221.811 628.293 223.566 632.54 223.569 636.969V671.786C223.569 672.014 223.479 672.233 223.318 672.394C223.158 672.555 222.94 672.645 222.713 672.645C222.486 672.645 222.269 672.555 222.108 672.394C221.948 672.233 221.858 672.014 221.858 671.786V636.923C221.855 632.949 220.28 629.139 217.481 626.329C214.681 623.519 210.885 621.939 206.926 621.936C202.52 621.93 198.295 620.173 195.176 617.049C192.057 613.925 190.298 609.688 190.283 605.266Z" fill="white" fill-opacity="0.1"/>
<path d="M398.032 818.81C398.03 818.696 398.051 818.584 398.094 818.479C398.136 818.374 398.199 818.279 398.279 818.199C398.358 818.119 398.453 818.056 398.558 818.013C398.662 817.971 398.774 817.95 398.887 817.951H436.451C439.278 817.948 441.989 816.819 443.989 814.812C445.988 812.805 447.113 810.084 447.116 807.246V791.217C447.116 790.989 447.206 790.771 447.367 790.61C447.527 790.449 447.745 790.358 447.972 790.358C448.199 790.358 448.416 790.449 448.577 790.61C448.737 790.771 448.827 790.989 448.827 791.217V807.246C448.821 810.539 447.515 813.695 445.195 816.023C442.876 818.352 439.731 819.662 436.451 819.668H398.887C398.66 819.668 398.443 819.578 398.282 819.417C398.122 819.256 398.032 819.037 398.032 818.81Z" fill="white" fill-opacity="0.1"/>
<path d="M418.724 899.23V840.014C418.724 839.787 418.814 839.568 418.974 839.407C419.135 839.246 419.352 839.156 419.579 839.156C419.806 839.156 420.024 839.246 420.184 839.407C420.345 839.568 420.435 839.787 420.435 840.014V899.23C420.438 903.205 422.012 907.017 424.811 909.829C427.61 912.64 431.406 914.223 435.367 914.229C439.78 914.232 444.011 915.993 447.132 919.125C450.252 922.257 452.006 926.504 452.009 930.934V965.751C452.009 965.979 451.919 966.197 451.759 966.358C451.598 966.519 451.381 966.61 451.154 966.61C450.927 966.61 450.709 966.519 450.549 966.358C450.389 966.197 450.298 965.979 450.298 965.751V930.888C450.295 926.914 448.721 923.104 445.922 920.294C443.122 917.484 439.326 915.904 435.367 915.901C430.96 915.895 426.736 914.137 423.617 911.013C420.498 907.889 418.739 903.653 418.724 899.23Z" fill="white" fill-opacity="0.1"/>
<path d="M8.87316 664.441V605.225C8.87316 604.997 8.96331 604.779 9.12375 604.618C9.28419 604.457 9.5018 604.366 9.7287 604.366C9.9556 604.366 10.1732 604.457 10.3336 604.618C10.4941 604.779 10.5842 604.997 10.5842 605.225V664.441C10.5873 668.416 12.161 672.227 14.9603 675.039C17.7596 677.851 21.5558 679.433 25.5161 679.439C29.9291 679.442 34.1605 681.203 37.281 684.335C40.4015 687.467 42.1559 691.715 42.1589 696.144V730.961C42.1589 731.189 42.0688 731.407 41.9084 731.568C41.7479 731.729 41.5303 731.82 41.3034 731.82C41.0765 731.82 40.8589 731.729 40.6985 731.568C40.538 731.407 40.4479 731.189 40.4479 730.961V696.098C40.4449 692.124 38.8707 688.314 36.0711 685.504C33.2715 682.694 29.4753 681.114 25.5161 681.111C21.1099 681.105 16.8854 679.348 13.7665 676.224C10.6476 673.1 8.88824 668.863 8.87316 664.441Z" fill="white" fill-opacity="0.1"/>
<path d="M38.573 995.061C38.5715 994.948 38.5926 994.836 38.635 994.731C38.6775 994.626 38.7405 994.53 38.8202 994.45C38.9 994.37 38.9949 994.307 39.0994 994.265C39.2038 994.222 39.3158 994.201 39.4286 994.202H76.992C79.8198 994.199 82.5308 993.071 84.5304 991.064C86.5299 989.057 87.6546 986.336 87.6576 983.497V967.468C87.6576 967.24 87.7478 967.022 87.9082 966.861C88.0686 966.7 88.2862 966.609 88.5131 966.609C88.74 966.609 88.9577 966.7 89.1181 966.861C89.2785 967.022 89.3687 967.24 89.3687 967.468V983.497C89.3626 986.79 88.0567 989.946 85.7369 992.275C83.4172 994.603 80.2726 995.914 76.992 995.92H39.4286C39.2017 995.92 38.9841 995.829 38.8236 995.668C38.6632 995.507 38.573 995.289 38.573 995.061Z" fill="white" fill-opacity="0.1"/>
<path d="M193.107 710.641C193.105 710.528 193.126 710.415 193.169 710.31C193.211 710.205 193.274 710.11 193.354 710.03C193.434 709.95 193.529 709.887 193.633 709.844C193.738 709.802 193.85 709.781 193.962 709.782H231.526C234.354 709.779 237.065 708.65 239.064 706.643C241.064 704.636 242.188 701.915 242.191 699.077V683.048C242.191 682.82 242.282 682.602 242.442 682.441C242.602 682.28 242.82 682.189 243.047 682.189C243.274 682.189 243.491 682.28 243.652 682.441C243.812 682.602 243.902 682.82 243.902 683.048V699.077C243.896 702.37 242.59 705.526 240.271 707.854C237.951 710.183 234.806 711.493 231.526 711.499H193.962C193.736 711.499 193.518 711.409 193.357 711.248C193.197 711.087 193.107 710.869 193.107 710.641Z" fill="white" fill-opacity="0.1"/>
<path d="M213.799 791.061V731.845C213.799 731.618 213.889 731.399 214.05 731.238C214.21 731.077 214.428 730.987 214.655 730.987C214.881 730.987 215.099 731.077 215.259 731.238C215.42 731.399 215.51 731.618 215.51 731.845V791.061C215.513 795.036 217.087 798.848 219.886 801.66C222.685 804.471 226.482 806.054 230.442 806.06C234.855 806.063 239.086 807.824 242.207 810.956C245.327 814.088 247.082 818.335 247.085 822.765V857.582C247.085 857.81 246.995 858.028 246.834 858.189C246.674 858.35 246.456 858.441 246.229 858.441C246.002 858.441 245.785 858.35 245.624 858.189C245.464 858.028 245.374 857.81 245.374 857.582V822.719C245.371 818.745 243.797 814.935 240.997 812.125C238.197 809.315 234.401 807.735 230.442 807.732C226.036 807.726 221.811 805.968 218.692 802.844C215.573 799.72 213.814 795.484 213.799 791.061Z" fill="white" fill-opacity="0.1"/>
<path d="M270.374 946.703C270.372 946.59 270.393 946.478 270.436 946.373C270.478 946.268 270.541 946.173 270.621 946.093C270.701 946.013 270.796 945.949 270.9 945.907C271.004 945.864 271.116 945.843 271.229 945.845H308.793C311.62 945.842 314.332 944.713 316.331 942.706C318.331 940.699 319.455 937.978 319.458 935.14V919.11C319.458 918.883 319.548 918.664 319.709 918.503C319.869 918.342 320.087 918.252 320.314 918.252C320.541 918.252 320.758 918.342 320.919 918.503C321.079 918.664 321.169 918.883 321.169 919.11V935.14C321.163 938.432 319.857 941.589 317.538 943.917C315.218 946.245 312.073 947.556 308.793 947.562H271.229C271.002 947.562 270.785 947.472 270.624 947.311C270.464 947.15 270.374 946.931 270.374 946.703Z" fill="white" fill-opacity="0.1"/>
<path d="M424.906 662.283C424.905 662.17 424.926 662.057 424.968 661.952C425.011 661.848 425.074 661.752 425.154 661.672C425.233 661.592 425.328 661.529 425.433 661.487C425.537 661.444 425.649 661.423 425.762 661.424H463.325C466.153 661.421 468.864 660.292 470.864 658.285C472.863 656.278 473.988 653.557 473.991 650.719V634.69C473.991 634.462 474.081 634.244 474.242 634.083C474.402 633.922 474.62 633.831 474.847 633.831C475.073 633.831 475.291 633.922 475.452 634.083C475.612 634.244 475.702 634.462 475.702 634.69V650.719C475.696 654.012 474.39 657.168 472.07 659.496C469.751 661.825 466.606 663.136 463.325 663.142H425.762C425.535 663.142 425.317 663.051 425.157 662.89C424.997 662.729 424.906 662.511 424.906 662.283Z" fill="white" fill-opacity="0.1"/>
<path d="M445.599 742.704V683.488C445.599 683.26 445.689 683.041 445.849 682.88C446.01 682.719 446.227 682.629 446.454 682.629C446.681 682.629 446.899 682.719 447.059 682.88C447.219 683.041 447.31 683.26 447.31 683.488V742.704C447.313 746.679 448.886 750.49 451.686 753.302C454.485 756.114 458.281 757.696 462.241 757.702C466.655 757.705 470.886 759.466 474.006 762.598C477.127 765.73 478.881 769.977 478.884 774.407V809.224C478.884 809.452 478.794 809.67 478.634 809.831C478.473 809.992 478.256 810.083 478.029 810.083C477.802 810.083 477.584 809.992 477.424 809.831C477.263 809.67 477.173 809.452 477.173 809.224V774.361C477.17 770.387 475.596 766.577 472.797 763.767C469.997 760.957 466.201 759.377 462.241 759.374C457.835 759.368 453.611 757.611 450.492 754.487C447.373 751.363 445.614 747.126 445.599 742.704Z" fill="white" fill-opacity="0.1"/>
<path d="M15.057 427.493C15.0555 427.38 15.0765 427.267 15.119 427.162C15.1614 427.058 15.2244 426.962 15.3042 426.882C15.3839 426.802 15.4788 426.739 15.5833 426.696C15.6878 426.654 15.7998 426.633 15.9125 426.634H53.476C56.3037 426.631 59.0148 425.502 61.0143 423.495C63.0139 421.488 64.1385 418.767 64.1415 415.929V399.9C64.1415 399.672 64.2317 399.454 64.3922 399.293C64.5526 399.132 64.7702 399.041 64.9971 399.041C65.224 399.041 65.4416 399.132 65.6021 399.293C65.7625 399.454 65.8526 399.672 65.8526 399.9V415.929C65.8466 419.222 64.5407 422.378 62.2209 424.706C59.9011 427.035 56.7566 428.346 53.476 428.352H15.9125C15.6856 428.352 15.468 428.261 15.3076 428.1C15.1471 427.939 15.057 427.721 15.057 427.493Z" fill="white" fill-opacity="0.1"/>
<path d="M35.7491 507.914V448.698C35.7491 448.47 35.8393 448.252 35.9997 448.091C36.1602 447.929 36.3777 447.839 36.6046 447.839C36.8315 447.839 37.0491 447.929 37.2096 448.091C37.37 448.252 37.4602 448.47 37.4602 448.698V507.914C37.4632 511.889 39.037 515.7 41.8363 518.512C44.6355 521.324 48.4317 522.906 52.392 522.912C56.805 522.915 61.0365 524.676 64.157 527.808C67.2775 530.94 69.0319 535.187 69.0349 539.617V574.434C69.0349 574.662 68.9448 574.88 68.7843 575.041C68.6239 575.202 68.4063 575.293 68.1794 575.293C67.9525 575.293 67.7349 575.202 67.5744 575.041C67.414 574.88 67.3238 574.662 67.3238 574.434V539.571C67.3208 535.597 65.7467 531.787 62.9471 528.977C60.1475 526.167 56.3512 524.587 52.392 524.584C47.9858 524.578 43.7613 522.821 40.6424 519.697C37.5236 516.573 35.7642 512.336 35.7491 507.914Z" fill="white" fill-opacity="0.1"/>
<path d="M65.4479 838.535C65.4464 838.421 65.4675 838.309 65.51 838.204C65.5524 838.099 65.6153 838.004 65.6951 837.924C65.7748 837.844 65.8698 837.781 65.9743 837.738C66.0788 837.695 66.1907 837.674 66.3035 837.676H103.867C106.695 837.673 109.406 836.544 111.405 834.537C113.405 832.53 114.53 829.809 114.533 826.971V810.942C114.533 810.714 114.623 810.495 114.783 810.334C114.944 810.173 115.161 810.083 115.388 810.083C115.615 810.083 115.833 810.173 115.993 810.334C116.153 810.495 116.244 810.714 116.244 810.942V826.971C116.238 830.264 114.932 833.42 112.612 835.748C110.292 838.076 107.148 839.387 103.867 839.393H66.3035C66.0766 839.393 65.8589 839.303 65.6985 839.142C65.538 838.981 65.4479 838.762 65.4479 838.535Z" fill="white" fill-opacity="0.1"/>
<path d="M86.1401 918.955V859.739C86.1401 859.511 86.2302 859.293 86.3906 859.132C86.5511 858.971 86.7687 858.881 86.9956 858.881C87.2225 858.881 87.4401 858.971 87.6005 859.132C87.761 859.293 87.8511 859.511 87.8511 859.739V918.955C87.8541 922.93 89.4279 926.742 92.2272 929.553C95.0265 932.365 98.8226 933.948 102.783 933.954C107.196 933.957 111.427 935.718 114.548 938.85C117.668 941.982 119.423 946.229 119.426 950.658V985.476C119.426 985.704 119.336 985.922 119.175 986.083C119.015 986.244 118.797 986.334 118.57 986.334C118.343 986.334 118.126 986.244 117.965 986.083C117.805 985.922 117.715 985.704 117.715 985.476V950.613C117.712 946.639 116.138 942.828 113.338 940.018C110.538 937.209 106.742 935.628 102.783 935.625C98.3767 935.619 94.1522 933.862 91.0334 930.738C87.9145 927.614 86.1551 923.378 86.1401 918.955Z" fill="white" fill-opacity="0.1"/>
<path d="M219.982 554.114C219.98 554.001 220.001 553.889 220.044 553.784C220.086 553.679 220.149 553.584 220.229 553.504C220.309 553.423 220.404 553.36 220.508 553.318C220.613 553.275 220.724 553.254 220.837 553.255H258.401C261.228 553.252 263.94 552.124 265.939 550.117C267.939 548.11 269.063 545.389 269.066 542.55V526.521C269.066 526.294 269.156 526.075 269.317 525.914C269.477 525.753 269.695 525.663 269.922 525.663C270.149 525.663 270.366 525.753 270.527 525.914C270.687 526.075 270.777 526.294 270.777 526.521V542.55C270.771 545.843 269.465 548.999 267.146 551.328C264.826 553.656 261.681 554.967 258.401 554.973H220.837C220.61 554.973 220.393 554.882 220.232 554.721C220.072 554.56 219.982 554.342 219.982 554.114Z" fill="white" fill-opacity="0.1"/>
<path d="M240.674 634.535V575.319C240.674 575.091 240.764 574.873 240.924 574.712C241.085 574.551 241.302 574.46 241.529 574.46C241.756 574.46 241.974 574.551 242.134 574.712C242.295 574.873 242.385 575.091 242.385 575.319V634.535C242.388 638.51 243.962 642.321 246.761 645.133C249.56 647.945 253.356 649.528 257.317 649.534C261.73 649.537 265.961 651.298 269.082 654.43C272.202 657.562 273.957 661.809 273.96 666.238V701.056C273.96 701.283 273.869 701.502 273.709 701.663C273.549 701.824 273.331 701.914 273.104 701.914C272.877 701.914 272.66 701.824 272.499 701.663C272.339 701.502 272.249 701.283 272.249 701.056V666.192C272.246 662.218 270.671 658.408 267.872 655.598C265.072 652.788 261.276 651.208 257.317 651.205C252.911 651.199 248.686 649.442 245.567 646.318C242.448 643.194 240.689 638.958 240.674 634.535Z" fill="white" fill-opacity="0.1"/>
<path d="M448.423 848.079C448.421 847.966 448.442 847.853 448.484 847.748C448.527 847.644 448.59 847.548 448.67 847.468C448.749 847.388 448.844 847.325 448.949 847.282C449.053 847.24 449.165 847.219 449.278 847.22H486.841C489.669 847.217 492.38 846.088 494.38 844.081C496.379 842.075 497.504 839.353 497.507 836.515V820.486C497.507 820.258 497.597 820.04 497.758 819.879C497.918 819.718 498.136 819.627 498.363 819.627C498.59 819.627 498.807 819.718 498.968 819.879C499.128 820.04 499.218 820.258 499.218 820.486V836.515C499.212 839.808 497.906 842.964 495.586 845.292C493.267 847.621 490.122 848.932 486.841 848.938H449.278C449.051 848.938 448.834 848.847 448.673 848.686C448.513 848.525 448.423 848.307 448.423 848.079Z" fill="white" fill-opacity="0.1"/>
<path d="M469.115 928.5V869.284C469.115 869.056 469.205 868.837 469.365 868.676C469.526 868.515 469.743 868.425 469.97 868.425C470.197 868.425 470.415 868.515 470.575 868.676C470.736 868.837 470.826 869.056 470.826 869.284V928.5C470.829 932.475 472.402 936.286 475.202 939.098C478.001 941.91 481.797 943.492 485.758 943.498C490.171 943.501 494.402 945.262 497.523 948.394C500.643 951.526 502.397 955.773 502.4 960.203V995.02C502.4 995.248 502.31 995.466 502.15 995.627C501.989 995.788 501.772 995.879 501.545 995.879C501.318 995.879 501.1 995.788 500.94 995.627C500.779 995.466 500.689 995.248 500.689 995.02V960.157C500.686 956.183 499.112 952.373 496.313 949.563C493.513 946.753 489.717 945.173 485.758 945.17C481.351 945.164 477.127 943.407 474.008 940.283C470.889 937.159 469.13 932.922 469.115 928.5Z" fill="white" fill-opacity="0.1"/>
<path d="M38.573 613.289C38.5715 613.176 38.5926 613.063 38.635 612.958C38.6775 612.854 38.7404 612.758 38.8202 612.678C38.8999 612.598 38.9949 612.535 39.0994 612.492C39.2038 612.45 39.3158 612.429 39.4285 612.43H76.992C79.8198 612.427 82.5308 611.298 84.5304 609.292C86.5299 607.285 87.6546 604.563 87.6576 601.725V585.696C87.6576 585.468 87.7478 585.25 87.9082 585.089C88.0686 584.928 88.2862 584.837 88.5131 584.837C88.74 584.837 88.9577 584.928 89.1181 585.089C89.2785 585.25 89.3687 585.468 89.3687 585.696V601.725C89.3626 605.018 88.0567 608.174 85.7369 610.502C83.4172 612.831 80.2726 614.142 76.992 614.148H39.4285C39.2016 614.148 38.984 614.057 38.8236 613.896C38.6632 613.735 38.573 613.517 38.573 613.289Z" fill="white" fill-opacity="0.1"/>
<path d="M59.2652 693.71V634.494C59.2652 634.266 59.3553 634.048 59.5157 633.887C59.6762 633.726 59.8938 633.635 60.1207 633.635C60.3476 633.635 60.5652 633.726 60.7256 633.887C60.8861 634.048 60.9762 634.266 60.9762 634.494L60.9762 693.71C60.9792 697.685 62.553 701.496 65.3523 704.308C68.1515 707.12 71.9477 708.702 75.908 708.708C80.3211 708.711 84.5525 710.472 87.673 713.604C90.7935 716.736 92.5479 720.984 92.5509 725.413V760.23C92.5509 760.458 92.4608 760.676 92.3004 760.838C92.1399 760.999 91.9223 761.089 91.6954 761.089C91.4685 761.089 91.2509 760.999 91.0905 760.838C90.93 760.676 90.8398 760.458 90.8398 760.23V725.367C90.8368 721.393 89.2627 717.583 86.4631 714.773C83.6635 711.963 79.8673 710.383 75.908 710.38C71.5018 710.374 67.2773 708.617 64.1584 705.493C61.0396 702.369 59.2802 698.132 59.2652 693.71Z" fill="white" fill-opacity="0.1"/>
<path d="M243.498 739.91C243.496 739.797 243.517 739.685 243.56 739.58C243.602 739.475 243.665 739.38 243.745 739.3C243.825 739.22 243.92 739.156 244.024 739.114C244.129 739.071 244.241 739.05 244.353 739.052H281.917C284.744 739.048 287.456 737.92 289.455 735.913C291.455 733.906 292.579 731.185 292.582 728.346V712.317C292.582 712.09 292.672 711.871 292.833 711.71C292.993 711.549 293.211 711.459 293.438 711.459C293.665 711.459 293.882 711.549 294.043 711.71C294.203 711.871 294.293 712.09 294.293 712.317V728.346C294.287 731.639 292.981 734.795 290.662 737.124C288.342 739.452 285.197 740.763 281.917 740.769H244.353C244.126 740.769 243.909 740.678 243.748 740.517C243.588 740.356 243.498 740.138 243.498 739.91Z" fill="white" fill-opacity="0.1"/>
<path d="M264.19 820.331V761.115C264.19 760.887 264.28 760.669 264.44 760.508C264.601 760.347 264.819 760.256 265.045 760.256C265.272 760.256 265.49 760.347 265.65 760.508C265.811 760.669 265.901 760.887 265.901 761.115V820.331C265.904 824.306 267.478 828.117 270.277 830.929C273.076 833.741 276.872 835.323 280.833 835.33C285.246 835.333 289.477 837.093 292.598 840.226C295.718 843.358 297.473 847.605 297.476 852.034V886.851C297.476 887.079 297.386 887.298 297.225 887.459C297.065 887.62 296.847 887.71 296.62 887.71C296.393 887.71 296.176 887.62 296.015 887.459C295.855 887.298 295.765 887.079 295.765 886.851V851.988C295.762 848.014 294.187 844.204 291.388 841.394C288.588 838.584 284.792 837.004 280.833 837.001C276.427 836.995 272.202 835.238 269.083 832.114C265.964 828.99 264.205 824.753 264.19 820.331Z" fill="white" fill-opacity="0.1"/>
<path d="M320.765 975.973C320.763 975.859 320.784 975.747 320.827 975.642C320.869 975.537 320.932 975.442 321.012 975.362C321.092 975.282 321.186 975.219 321.291 975.176C321.395 975.134 321.507 975.112 321.62 975.114H359.184C362.011 975.111 364.722 973.982 366.722 971.975C368.722 969.968 369.846 967.247 369.849 964.409V948.38C369.849 948.152 369.939 947.934 370.1 947.773C370.26 947.611 370.478 947.521 370.705 947.521C370.932 947.521 371.149 947.611 371.31 947.773C371.47 947.934 371.56 948.152 371.56 948.38V964.409C371.554 967.702 370.248 970.858 367.929 973.186C365.609 975.514 362.464 976.825 359.184 976.831H321.62C321.393 976.831 321.176 976.741 321.015 976.58C320.855 976.419 320.765 976.2 320.765 975.973Z" fill="white" fill-opacity="0.1"/>
<path d="M475.298 691.552C475.297 691.439 475.318 691.326 475.36 691.221C475.403 691.117 475.466 691.021 475.546 690.941C475.625 690.861 475.72 690.798 475.825 690.755C475.929 690.713 476.041 690.692 476.154 690.693H513.717C516.545 690.69 519.256 689.561 521.256 687.555C523.255 685.548 524.38 682.826 524.383 679.988V663.959C524.383 663.731 524.473 663.513 524.634 663.352C524.794 663.191 525.012 663.1 525.239 663.1C525.465 663.1 525.683 663.191 525.844 663.352C526.004 663.513 526.094 663.731 526.094 663.959L526.094 679.988C526.088 683.281 524.782 686.437 522.462 688.765C520.143 691.094 516.998 692.405 513.717 692.411H476.154C475.927 692.411 475.709 692.32 475.549 692.159C475.389 691.998 475.298 691.78 475.298 691.552Z" fill="white" fill-opacity="0.1"/>
<path d="M495.991 771.973V712.757C495.991 712.529 496.081 712.311 496.241 712.149C496.402 711.988 496.619 711.898 496.846 711.898C497.073 711.898 497.291 711.988 497.451 712.149C497.612 712.311 497.702 712.529 497.702 712.757V771.973C497.705 775.948 499.278 779.759 502.078 782.571C504.877 785.383 508.673 786.965 512.633 786.971C517.046 786.974 521.278 788.735 524.398 791.867C527.519 794.999 529.273 799.246 529.276 803.676V838.493C529.276 838.721 529.186 838.939 529.026 839.1C528.865 839.261 528.648 839.352 528.421 839.352C528.194 839.352 527.976 839.261 527.816 839.1C527.655 838.939 527.565 838.721 527.565 838.493V803.63C527.562 799.656 525.988 795.846 523.189 793.036C520.389 790.226 516.593 788.646 512.633 788.643C508.227 788.637 504.003 786.88 500.884 783.756C497.765 780.632 496.006 776.395 495.991 771.973Z" fill="white" fill-opacity="0.1"/>
<path d="M65.4479 456.762C65.4464 456.649 65.4675 456.537 65.51 456.432C65.5524 456.327 65.6153 456.232 65.6951 456.152C65.7748 456.072 65.8698 456.009 65.9743 455.966C66.0788 455.923 66.1907 455.902 66.3035 455.904H103.867C106.695 455.901 109.406 454.772 111.405 452.765C113.405 450.758 114.53 448.037 114.533 445.199V429.169C114.533 428.942 114.623 428.723 114.783 428.562C114.944 428.401 115.161 428.311 115.388 428.311C115.615 428.311 115.833 428.401 115.993 428.562C116.153 428.723 116.244 428.942 116.244 429.169V445.199C116.238 448.491 114.932 451.648 112.612 453.976C110.292 456.304 107.148 457.615 103.867 457.621H66.3035C66.0766 457.621 65.859 457.531 65.6985 457.37C65.5381 457.209 65.4479 456.99 65.4479 456.762Z" fill="white" fill-opacity="0.1"/>
<path d="M86.1401 537.183V477.967C86.1401 477.739 86.2302 477.521 86.3907 477.36C86.5511 477.199 86.7687 477.109 86.9956 477.109C87.2225 477.109 87.4401 477.199 87.6006 477.36C87.761 477.521 87.8511 477.739 87.8511 477.967V537.183C87.8541 541.158 89.4279 544.97 92.2272 547.781C95.0265 550.593 98.8226 552.176 102.783 552.182C107.196 552.185 111.427 553.946 114.548 557.078C117.668 560.21 119.423 564.457 119.426 568.886V603.704C119.426 603.932 119.336 604.15 119.175 604.311C119.015 604.472 118.797 604.562 118.57 604.562C118.343 604.562 118.126 604.472 117.965 604.311C117.805 604.15 117.715 603.932 117.715 603.704V568.841C117.712 564.867 116.138 561.056 113.338 558.246C110.538 555.436 106.742 553.856 102.783 553.853C98.3767 553.847 94.1522 552.09 91.0334 548.966C87.9145 545.842 86.1551 541.606 86.1401 537.183Z" fill="white" fill-opacity="0.1"/>
<path d="M115.84 867.804C115.838 867.69 115.86 867.578 115.902 867.473C115.944 867.368 116.007 867.273 116.087 867.193C116.167 867.113 116.262 867.05 116.366 867.007C116.471 866.965 116.583 866.943 116.695 866.945H154.259C157.087 866.942 159.798 865.813 161.797 863.806C163.797 861.799 164.922 859.078 164.925 856.24V840.211C164.925 839.983 165.015 839.765 165.175 839.604C165.336 839.442 165.553 839.352 165.78 839.352C166.007 839.352 166.225 839.442 166.385 839.604C166.545 839.765 166.636 839.983 166.636 840.211V856.24C166.63 859.533 165.324 862.689 163.004 865.017C160.684 867.346 157.54 868.656 154.259 868.662H116.695C116.469 868.662 116.251 868.572 116.09 868.411C115.93 868.25 115.84 868.031 115.84 867.804Z" fill="white" fill-opacity="0.1"/>
<path d="M136.532 948.224V889.008C136.532 888.781 136.622 888.562 136.783 888.401C136.943 888.24 137.161 888.15 137.388 888.15C137.614 888.15 137.832 888.24 137.993 888.401C138.153 888.562 138.243 888.781 138.243 889.008V948.224C138.246 952.199 139.82 956.011 142.619 958.823C145.418 961.634 149.215 963.217 153.175 963.223C157.588 963.226 161.819 964.987 164.94 968.119C168.06 971.251 169.815 975.498 169.818 979.928V1014.74C169.818 1014.97 169.728 1015.19 169.567 1015.35C169.407 1015.51 169.189 1015.6 168.962 1015.6C168.735 1015.6 168.518 1015.51 168.357 1015.35C168.197 1015.19 168.107 1014.97 168.107 1014.74V979.882C168.104 975.908 166.53 972.098 163.73 969.288C160.93 966.478 157.134 964.898 153.175 964.895C148.769 964.889 144.544 963.131 141.425 960.007C138.307 956.883 136.547 952.647 136.532 948.224Z" fill="white" fill-opacity="0.1"/>
<path d="M270.374 583.383C270.372 583.27 270.393 583.158 270.436 583.053C270.478 582.948 270.541 582.853 270.621 582.773C270.701 582.693 270.796 582.629 270.9 582.587C271.004 582.544 271.116 582.523 271.229 582.525H308.793C311.62 582.522 314.332 581.393 316.331 579.386C318.331 577.379 319.455 574.658 319.458 571.819V555.79C319.458 555.563 319.548 555.344 319.709 555.183C319.869 555.022 320.087 554.932 320.314 554.932C320.541 554.932 320.758 555.022 320.919 555.183C321.079 555.344 321.169 555.563 321.169 555.79V571.819C321.163 575.112 319.857 578.268 317.538 580.597C315.218 582.925 312.073 584.236 308.793 584.242H271.229C271.002 584.242 270.785 584.151 270.624 583.99C270.464 583.829 270.374 583.611 270.374 583.383Z" fill="white" fill-opacity="0.1"/>
<path d="M291.066 663.804V604.588C291.066 604.36 291.156 604.142 291.316 603.981C291.477 603.82 291.694 603.729 291.921 603.729C292.148 603.729 292.366 603.82 292.526 603.981C292.687 604.142 292.777 604.36 292.777 604.588L292.777 663.804C292.78 667.779 294.354 671.59 297.153 674.402C299.952 677.214 303.748 678.797 307.709 678.803C312.122 678.806 316.353 680.567 319.474 683.699C322.594 686.831 324.349 691.078 324.352 695.507V730.325C324.352 730.552 324.261 730.771 324.101 730.932C323.941 731.093 323.723 731.183 323.496 731.183C323.269 731.183 323.052 731.093 322.891 730.932C322.731 730.771 322.641 730.552 322.641 730.325V695.461C322.638 691.488 321.063 687.677 318.264 684.867C315.464 682.057 311.668 680.477 307.709 680.474C303.303 680.468 299.078 678.711 295.959 675.587C292.84 672.463 291.081 668.226 291.066 663.804Z" fill="white" fill-opacity="0.1"/>
<path d="M299.264 407.768C299.263 407.655 299.284 407.543 299.326 407.438C299.369 407.333 299.432 407.238 299.511 407.158C299.591 407.078 299.686 407.014 299.791 406.972C299.895 406.929 300.007 406.908 300.12 406.91H337.683C340.511 406.907 343.222 405.778 345.222 403.771C347.221 401.764 348.346 399.043 348.349 396.204V380.175C348.349 379.948 348.439 379.729 348.599 379.568C348.76 379.407 348.977 379.317 349.204 379.317C349.431 379.317 349.649 379.407 349.809 379.568C349.97 379.729 350.06 379.948 350.06 380.175V396.204C350.054 399.497 348.748 402.653 346.428 404.982C344.108 407.31 340.964 408.621 337.683 408.627H300.12C299.893 408.627 299.675 408.537 299.515 408.376C299.354 408.215 299.264 407.996 299.264 407.768Z" fill="white" fill-opacity="0.1"/>
<path d="M319.956 488.189V428.973C319.956 428.745 320.047 428.527 320.207 428.366C320.367 428.205 320.585 428.114 320.812 428.114C321.039 428.114 321.256 428.205 321.417 428.366C321.577 428.527 321.667 428.745 321.667 428.973V488.189C321.67 492.164 323.244 495.976 326.044 498.787C328.843 501.599 332.639 503.182 336.599 503.188C341.012 503.191 345.244 504.952 348.364 508.084C351.485 511.216 353.239 515.463 353.242 519.892V554.71C353.242 554.937 353.152 555.156 352.992 555.317C352.831 555.478 352.613 555.568 352.387 555.568C352.16 555.568 351.942 555.478 351.782 555.317C351.621 555.156 351.531 554.937 351.531 554.71V519.846C351.528 515.873 349.954 512.062 347.154 509.252C344.355 506.442 340.558 504.862 336.599 504.859C332.193 504.853 327.969 503.096 324.85 499.972C321.731 496.848 319.971 492.612 319.956 488.189Z" fill="white" fill-opacity="0.1"/>
<path d="M453.798 123.348C453.796 123.235 453.818 123.123 453.86 123.018C453.902 122.913 453.965 122.818 454.045 122.738C454.125 122.658 454.22 122.594 454.324 122.552C454.429 122.509 454.541 122.488 454.654 122.49H492.217C495.045 122.486 497.756 121.358 499.755 119.351C501.755 117.344 502.88 114.623 502.883 111.784V95.7553C502.883 95.5275 502.973 95.3091 503.133 95.148C503.294 94.987 503.511 94.8966 503.738 94.8966C503.965 94.8966 504.183 94.987 504.343 95.148C504.504 95.3091 504.594 95.5275 504.594 95.7553V111.784C504.588 115.077 503.282 118.233 500.962 120.562C498.642 122.89 495.498 124.201 492.217 124.207H454.654C454.427 124.207 454.209 124.116 454.049 123.955C453.888 123.794 453.798 123.576 453.798 123.348Z" fill="white" fill-opacity="0.1"/>
<path d="M474.49 203.769V144.553C474.49 144.325 474.58 144.107 474.741 143.946C474.901 143.785 475.119 143.694 475.346 143.694C475.573 143.694 475.79 143.785 475.951 143.946C476.111 144.107 476.201 144.325 476.201 144.553V203.769C476.204 207.744 477.778 211.555 480.577 214.367C483.377 217.179 487.173 218.761 491.133 218.768C495.546 218.771 499.777 220.532 502.898 223.664C506.018 226.796 507.773 231.043 507.776 235.472V270.29C507.776 270.517 507.686 270.736 507.525 270.897C507.365 271.058 507.147 271.148 506.92 271.148C506.693 271.148 506.476 271.058 506.315 270.897C506.155 270.736 506.065 270.517 506.065 270.29V235.426C506.062 231.452 504.488 227.642 501.688 224.832C498.889 222.022 495.092 220.442 491.133 220.439C486.727 220.433 482.502 218.676 479.383 215.552C476.265 212.428 474.505 208.191 474.49 203.769Z" fill="white" fill-opacity="0.1"/>
<path d="M94.3396 299.6C94.3381 299.487 94.3592 299.374 94.4016 299.269C94.4441 299.164 94.507 299.069 94.5867 298.989C94.6665 298.909 94.7614 298.846 94.8659 298.803C94.9704 298.761 95.0824 298.739 95.1951 298.741H132.759C135.586 298.738 138.297 297.609 140.297 295.602C142.297 293.595 143.421 290.874 143.424 288.036V272.007C143.424 271.779 143.514 271.561 143.675 271.4C143.835 271.239 144.053 271.148 144.28 271.148C144.507 271.148 144.724 271.239 144.885 271.4C145.045 271.561 145.135 271.779 145.135 272.007V288.036C145.129 291.329 143.823 294.485 141.504 296.813C139.184 299.142 136.039 300.452 132.759 300.458H95.1951C94.9682 300.458 94.7506 300.368 94.5902 300.207C94.4298 300.046 94.3396 299.827 94.3396 299.6Z" fill="white" fill-opacity="0.1"/>
<path d="M115.032 380.02V320.805C115.032 320.577 115.122 320.358 115.282 320.197C115.443 320.036 115.66 319.946 115.887 319.946C116.114 319.946 116.332 320.036 116.492 320.197C116.653 320.358 116.743 320.577 116.743 320.805V380.02C116.746 383.995 118.32 387.807 121.119 390.619C123.918 393.431 127.714 395.013 131.675 395.019C136.088 395.022 140.319 396.783 143.44 399.915C146.56 403.047 148.314 407.294 148.318 411.724V446.541C148.318 446.769 148.227 446.987 148.067 447.148C147.906 447.309 147.689 447.4 147.462 447.4C147.235 447.4 147.017 447.309 146.857 447.148C146.697 446.987 146.606 446.769 146.606 446.541V411.678C146.603 407.704 145.029 403.894 142.23 401.084C139.43 398.274 135.634 396.694 131.675 396.691C127.268 396.685 123.044 394.928 119.925 391.804C116.806 388.68 115.047 384.443 115.032 380.02Z" fill="white" fill-opacity="0.1"/>
<path d="M269.565 95.6001V36.3841C269.565 36.1564 269.655 35.938 269.816 35.7769C269.976 35.6159 270.194 35.5255 270.421 35.5255C270.648 35.5255 270.865 35.6159 271.026 35.7769C271.186 35.938 271.276 36.1564 271.276 36.3841V95.6001C271.279 99.5751 272.853 103.387 275.652 106.198C278.452 109.01 282.248 110.593 286.208 110.599C290.621 110.602 294.853 112.363 297.973 115.495C301.094 118.627 302.848 122.874 302.851 127.303L302.851 162.121C302.851 162.348 302.761 162.567 302.6 162.728C302.44 162.889 302.222 162.979 301.996 162.979C301.769 162.979 301.551 162.889 301.391 162.728C301.23 162.567 301.14 162.348 301.14 162.121V127.258C301.137 123.284 299.563 119.473 296.763 116.663C293.964 113.853 290.167 112.273 286.208 112.27C281.802 112.264 277.577 110.507 274.459 107.383C271.34 104.259 269.58 100.023 269.565 95.6001Z" fill="white" fill-opacity="0.1"/>
<path d="M326.14 251.242C326.139 251.129 326.16 251.016 326.202 250.911C326.245 250.807 326.308 250.711 326.387 250.631C326.467 250.551 326.562 250.488 326.667 250.445C326.771 250.403 326.883 250.382 326.996 250.383H364.559C367.387 250.38 370.098 249.251 372.098 247.244C374.097 245.237 375.222 242.516 375.225 239.678V223.649C375.225 223.421 375.315 223.203 375.475 223.042C375.636 222.881 375.853 222.79 376.08 222.79C376.307 222.79 376.525 222.881 376.685 223.042C376.846 223.203 376.936 223.421 376.936 223.649V239.678C376.93 242.971 375.624 246.127 373.304 248.455C370.984 250.784 367.84 252.094 364.559 252.101H326.996C326.769 252.101 326.551 252.01 326.391 251.849C326.23 251.688 326.14 251.47 326.14 251.242Z" fill="white" fill-opacity="0.1"/>
<path d="M346.832 331.663V272.447C346.832 272.219 346.922 272 347.083 271.839C347.243 271.678 347.461 271.588 347.688 271.588C347.915 271.588 348.132 271.678 348.293 271.839C348.453 272 348.543 272.219 348.543 272.447V331.663C348.546 335.638 350.12 339.449 352.919 342.261C355.719 345.073 359.515 346.655 363.475 346.661C367.888 346.664 372.12 348.425 375.24 351.557C378.361 354.689 380.115 358.936 380.118 363.366V398.183C380.118 398.411 380.028 398.629 379.868 398.79C379.707 398.951 379.489 399.042 379.263 399.042C379.036 399.042 378.818 398.951 378.658 398.79C378.497 398.629 378.407 398.411 378.407 398.183V363.32C378.404 359.346 376.83 355.536 374.03 352.726C371.231 349.916 367.434 348.336 363.475 348.333C359.069 348.327 354.845 346.57 351.726 343.446C348.607 340.322 346.847 336.085 346.832 331.663Z" fill="white" fill-opacity="0.1"/>
<path d="M121.215 143.073C121.214 142.96 121.235 142.848 121.277 142.743C121.32 142.638 121.383 142.542 121.463 142.462C121.542 142.382 121.637 142.319 121.742 142.277C121.846 142.234 121.958 142.213 122.071 142.214H159.634C162.462 142.211 165.173 141.082 167.173 139.076C169.172 137.069 170.297 134.347 170.3 131.509V115.48C170.3 115.252 170.39 115.034 170.551 114.873C170.711 114.712 170.929 114.621 171.156 114.621C171.382 114.621 171.6 114.712 171.76 114.873C171.921 115.034 172.011 115.252 172.011 115.48V131.509C172.005 134.802 170.699 137.958 168.379 140.287C166.06 142.615 162.915 143.926 159.634 143.932H122.071C121.844 143.932 121.626 143.841 121.466 143.68C121.306 143.519 121.215 143.301 121.215 143.073Z" fill="white" fill-opacity="0.1"/>
<path d="M141.908 223.494V164.278C141.908 164.05 141.998 163.832 142.158 163.671C142.319 163.51 142.536 163.419 142.763 163.419C142.99 163.419 143.208 163.51 143.368 163.671C143.528 163.832 143.619 164.05 143.619 164.278V223.494C143.622 227.469 145.195 231.28 147.995 234.092C150.794 236.904 154.59 238.486 158.55 238.492C162.963 238.495 167.195 240.256 170.315 243.388C173.436 246.521 175.19 250.768 175.193 255.197V290.014C175.193 290.242 175.103 290.461 174.943 290.622C174.782 290.783 174.565 290.873 174.338 290.873C174.111 290.873 173.893 290.783 173.733 290.622C173.572 290.461 173.482 290.242 173.482 290.014V255.151C173.479 251.177 171.905 247.367 169.105 244.557C166.306 241.747 162.51 240.167 158.55 240.164C154.144 240.158 149.92 238.401 146.801 235.277C143.682 232.153 141.923 227.916 141.908 223.494Z" fill="white" fill-opacity="0.1"/>
<path d="M349.656 437.038C349.655 436.925 349.676 436.812 349.718 436.707C349.761 436.603 349.824 436.507 349.903 436.427C349.983 436.347 350.078 436.284 350.183 436.241C350.287 436.199 350.399 436.178 350.512 436.179H388.075C390.903 436.176 393.614 435.047 395.614 433.04C397.613 431.033 398.738 428.312 398.741 425.474V409.445C398.741 409.217 398.831 408.999 398.991 408.838C399.152 408.677 399.369 408.586 399.596 408.586C399.823 408.586 400.041 408.677 400.201 408.838C400.362 408.999 400.452 409.217 400.452 409.445V425.474C400.446 428.767 399.14 431.923 396.82 434.251C394.5 436.58 391.356 437.891 388.075 437.897H350.512C350.285 437.897 350.067 437.806 349.907 437.645C349.746 437.484 349.656 437.266 349.656 437.038Z" fill="white" fill-opacity="0.1"/>
<path d="M370.348 517.459V458.243C370.348 458.015 370.438 457.797 370.599 457.635C370.759 457.474 370.977 457.384 371.204 457.384C371.431 457.384 371.648 457.474 371.809 457.635C371.969 457.797 372.059 458.015 372.059 458.243V517.459C372.062 521.434 373.636 525.245 376.435 528.057C379.235 530.869 383.031 532.451 386.991 532.457C391.404 532.46 395.636 534.221 398.756 537.353C401.877 540.485 403.631 544.732 403.634 549.162V583.979C403.634 584.207 403.544 584.425 403.384 584.586C403.223 584.747 403.005 584.838 402.779 584.838C402.552 584.838 402.334 584.747 402.174 584.586C402.013 584.425 401.923 584.207 401.923 583.979V549.116C401.92 545.142 400.346 541.332 397.546 538.522C394.747 535.712 390.95 534.132 386.991 534.129C382.585 534.123 378.361 532.366 375.242 529.242C372.123 526.118 370.363 521.881 370.348 517.459Z" fill="white" fill-opacity="0.1"/>
<path d="M504.19 152.617C504.188 152.504 504.21 152.392 504.252 152.287C504.294 152.182 504.357 152.087 504.437 152.007C504.517 151.926 504.612 151.863 504.716 151.821C504.821 151.778 504.933 151.757 505.046 151.759H542.609C545.437 151.755 548.148 150.627 550.147 148.62C552.147 146.613 553.271 143.892 553.274 141.053V125.024C553.274 124.797 553.365 124.578 553.525 124.417C553.686 124.256 553.903 124.166 554.13 124.166C554.357 124.166 554.575 124.256 554.735 124.417C554.895 124.578 554.986 124.797 554.986 125.024V141.053C554.98 144.346 553.674 147.502 551.354 149.831C549.034 152.159 545.89 153.47 542.609 153.476H505.046C504.819 153.476 504.601 153.385 504.441 153.224C504.28 153.063 504.19 152.845 504.19 152.617Z" fill="white" fill-opacity="0.1"/>
<path d="M524.882 233.038V173.822C524.882 173.594 524.972 173.376 525.133 173.215C525.293 173.054 525.511 172.963 525.738 172.963C525.965 172.963 526.182 173.054 526.343 173.215C526.503 173.376 526.593 173.594 526.593 173.822V233.038C526.596 237.013 528.17 240.824 530.969 243.636C533.769 246.448 537.565 248.03 541.525 248.037C545.938 248.04 550.169 249.801 553.29 252.933C556.41 256.065 558.165 260.312 558.168 264.741V299.559C558.168 299.786 558.078 300.005 557.917 300.166C557.757 300.327 557.539 300.417 557.312 300.417C557.085 300.417 556.868 300.327 556.707 300.166C556.547 300.005 556.457 299.786 556.457 299.559V264.695C556.454 260.721 554.88 256.911 552.08 254.101C549.28 251.291 545.484 249.711 541.525 249.708C537.119 249.702 532.894 247.945 529.775 244.821C526.657 241.697 524.897 237.46 524.882 233.038Z" fill="white" fill-opacity="0.1"/>
<path d="M144.732 328.869C144.73 328.756 144.751 328.644 144.794 328.539C144.836 328.434 144.899 328.339 144.979 328.259C145.058 328.178 145.153 328.115 145.258 328.073C145.362 328.03 145.474 328.009 145.587 328.01H183.15C185.978 328.007 188.689 326.879 190.689 324.872C192.688 322.865 193.813 320.144 193.816 317.305V301.276C193.816 301.048 193.906 300.83 194.067 300.669C194.227 300.508 194.445 300.418 194.672 300.418C194.899 300.418 195.116 300.508 195.277 300.669C195.437 300.83 195.527 301.048 195.527 301.276V317.305C195.521 320.598 194.215 323.754 191.895 326.083C189.576 328.411 186.431 329.722 183.15 329.728H145.587C145.36 329.728 145.143 329.637 144.982 329.476C144.822 329.315 144.732 329.097 144.732 328.869Z" fill="white" fill-opacity="0.1"/>
<path d="M165.424 409.29V350.074C165.424 349.846 165.514 349.628 165.674 349.467C165.835 349.306 166.052 349.215 166.279 349.215C166.506 349.215 166.724 349.306 166.884 349.467C167.045 349.628 167.135 349.846 167.135 350.074V409.29C167.138 413.265 168.711 417.076 171.511 419.888C174.31 422.7 178.106 424.282 182.067 424.289C186.48 424.292 190.711 426.053 193.831 429.185C196.952 432.317 198.706 436.564 198.709 440.993V475.81C198.709 476.038 198.619 476.257 198.459 476.418C198.298 476.579 198.081 476.669 197.854 476.669C197.627 476.669 197.409 476.579 197.249 476.418C197.088 476.257 196.998 476.038 196.998 475.81V440.947C196.995 436.973 195.421 433.163 192.622 430.353C189.822 427.543 186.026 425.963 182.067 425.96C177.66 425.954 173.436 424.197 170.317 421.073C167.198 417.949 165.439 413.712 165.424 409.29Z" fill="white" fill-opacity="0.1"/>
<path d="M299.264 44.4483C299.263 44.3352 299.284 44.2228 299.326 44.1179C299.369 44.0131 299.432 43.9178 299.511 43.8377C299.591 43.7577 299.686 43.6945 299.79 43.6519C299.895 43.6093 300.007 43.5881 300.12 43.5897H337.683C340.511 43.5866 343.222 42.4578 345.222 40.4508C347.221 38.4439 348.346 35.7228 348.349 32.8845V16.8554C348.349 16.6277 348.439 16.4093 348.599 16.2482C348.76 16.0872 348.977 15.9967 349.204 15.9967C349.431 15.9967 349.649 16.0872 349.809 16.2482C349.97 16.4093 350.06 16.6277 350.06 16.8554V32.8845C350.054 36.1773 348.748 39.3335 346.428 41.6619C344.108 43.9902 340.964 45.301 337.683 45.3071L300.12 45.307C299.893 45.307 299.675 45.2166 299.515 45.0555C299.354 44.8945 299.264 44.6761 299.264 44.4483Z" fill="white" fill-opacity="0.1"/>
<path d="M319.956 124.869V65.6532C319.956 65.4254 320.046 65.207 320.207 65.046C320.367 64.8849 320.585 64.7945 320.812 64.7945C321.039 64.7945 321.256 64.8849 321.417 65.046C321.577 65.207 321.667 65.4254 321.667 65.6532V124.869C321.67 128.844 323.244 132.656 326.043 135.467C328.843 138.279 332.639 139.862 336.599 139.868C341.012 139.871 345.244 141.632 348.364 144.764C351.485 147.896 353.239 152.143 353.242 156.572V191.39C353.242 191.617 353.152 191.836 352.991 191.997C352.831 192.158 352.613 192.248 352.387 192.248C352.16 192.248 351.942 192.158 351.782 191.997C351.621 191.836 351.531 191.617 351.531 191.39V156.527C351.528 152.553 349.954 148.742 347.154 145.932C344.355 143.122 340.558 141.542 336.599 141.539C332.193 141.533 327.968 139.776 324.85 136.652C321.731 133.528 319.971 129.292 319.956 124.869Z" fill="white" fill-opacity="0.1"/>
<path d="M376.531 280.511C376.53 280.398 376.551 280.286 376.593 280.181C376.636 280.076 376.699 279.981 376.778 279.901C376.858 279.821 376.953 279.757 377.057 279.715C377.162 279.672 377.274 279.651 377.387 279.653L414.95 279.653C417.778 279.65 420.489 278.521 422.488 276.514C424.488 274.507 425.613 271.786 425.616 268.947V252.918C425.616 252.691 425.706 252.472 425.866 252.311C426.027 252.15 426.244 252.06 426.471 252.06C426.698 252.06 426.916 252.15 427.076 252.311C427.237 252.472 427.327 252.691 427.327 252.918V268.947C427.321 272.24 426.015 275.396 423.695 277.725C421.375 280.053 418.231 281.364 414.95 281.37H377.387C377.16 281.37 376.942 281.28 376.782 281.118C376.621 280.957 376.531 280.739 376.531 280.511Z" fill="white" fill-opacity="0.1"/>
<path d="M397.223 360.932V301.716C397.223 301.488 397.313 301.27 397.474 301.109C397.634 300.948 397.852 300.857 398.079 300.857C398.306 300.857 398.523 300.948 398.684 301.109C398.844 301.27 398.934 301.488 398.934 301.716V360.932C398.937 364.907 400.511 368.719 403.31 371.53C406.11 374.342 409.906 375.925 413.866 375.931C418.279 375.934 422.511 377.695 425.631 380.827C428.752 383.959 430.506 388.206 430.509 392.635V427.453C430.509 427.68 430.419 427.899 430.258 428.06C430.098 428.221 429.88 428.311 429.653 428.311C429.427 428.311 429.209 428.221 429.049 428.06C428.888 427.899 428.798 427.68 428.798 427.453V392.589C428.795 388.616 427.221 384.805 424.421 381.995C421.622 379.185 417.825 377.605 413.866 377.602C409.46 377.596 405.235 375.839 402.117 372.715C398.998 369.591 397.238 365.355 397.223 360.932Z" fill="white" fill-opacity="0.1"/>
<path d="M551.757 76.5113V17.2954C551.757 17.0676 551.847 16.8492 552.007 16.6882C552.168 16.5271 552.386 16.4367 552.612 16.4367C552.839 16.4367 553.057 16.5271 553.217 16.6882C553.378 16.8492 553.468 17.0676 553.468 17.2954V76.5113C553.471 80.4863 555.045 84.2978 557.844 87.1096C560.643 89.9214 564.44 91.5039 568.4 91.5099C572.813 91.513 577.044 93.2739 580.165 96.406C583.285 99.538 585.04 103.785 585.043 108.215V143.032C585.043 143.26 584.953 143.478 584.792 143.639C584.632 143.8 584.414 143.891 584.187 143.891C583.96 143.891 583.743 143.8 583.582 143.639C583.422 143.478 583.332 143.26 583.332 143.032V108.169C583.329 104.195 581.754 100.385 578.955 97.5745C576.155 94.7646 572.359 93.1846 568.4 93.1815C563.994 93.1755 559.769 91.4184 556.65 88.2944C553.531 85.1704 551.772 80.9338 551.757 76.5113Z" fill="white" fill-opacity="0.1"/>
<path d="M171.606 172.342C171.605 172.229 171.626 172.117 171.668 172.012C171.711 171.907 171.774 171.812 171.854 171.732C171.933 171.652 172.028 171.588 172.133 171.546C172.237 171.503 172.349 171.482 172.462 171.484H210.025C212.853 171.481 215.564 170.352 217.564 168.345C219.563 166.338 220.688 163.617 220.691 160.778V144.749C220.691 144.522 220.781 144.303 220.942 144.142C221.102 143.981 221.32 143.891 221.547 143.891C221.773 143.891 221.991 143.981 222.152 144.142C222.312 144.303 222.402 144.522 222.402 144.749V160.778C222.396 164.071 221.09 167.227 218.77 169.556C216.451 171.884 213.306 173.195 210.025 173.201H172.462C172.235 173.201 172.017 173.111 171.857 172.949C171.697 172.788 171.606 172.57 171.606 172.342Z" fill="white" fill-opacity="0.1"/>
<path d="M192.299 252.763L192.299 193.547C192.299 193.319 192.389 193.101 192.549 192.94C192.71 192.779 192.927 192.688 193.154 192.688C193.381 192.688 193.599 192.779 193.759 192.94C193.919 193.101 194.01 193.319 194.01 193.547V252.763C194.013 256.738 195.586 260.55 198.386 263.361C201.185 266.173 204.981 267.756 208.941 267.762C213.354 267.765 217.586 269.526 220.706 272.658C223.827 275.79 225.581 280.037 225.584 284.466V319.284C225.584 319.511 225.494 319.73 225.334 319.891C225.173 320.052 224.956 320.142 224.729 320.142C224.502 320.142 224.284 320.052 224.124 319.891C223.963 319.73 223.873 319.511 223.873 319.284V284.42C223.87 280.447 222.296 276.636 219.496 273.826C216.697 271.016 212.901 269.436 208.941 269.433C204.535 269.427 200.311 267.67 197.192 264.546C194.073 261.422 192.314 257.186 192.299 252.763Z" fill="white" fill-opacity="0.1"/>
<path d="M400.047 466.307C400.046 466.194 400.067 466.081 400.109 465.977C400.152 465.872 400.215 465.776 400.294 465.696C400.374 465.616 400.469 465.553 400.573 465.51C400.678 465.468 400.79 465.447 400.903 465.448L438.466 465.448C441.294 465.445 444.005 464.316 446.005 462.309C448.004 460.302 449.129 457.581 449.132 454.743V438.714C449.132 438.486 449.222 438.268 449.382 438.107C449.543 437.946 449.76 437.855 449.987 437.855C450.214 437.855 450.432 437.946 450.592 438.107C450.753 438.268 450.843 438.486 450.843 438.714V454.743C450.837 458.036 449.531 461.192 447.211 463.52C444.891 465.849 441.747 467.16 438.466 467.166H400.903C400.676 467.166 400.458 467.075 400.298 466.914C400.137 466.753 400.047 466.535 400.047 466.307Z" fill="white" fill-opacity="0.1"/>
<path d="M420.739 546.728V487.512C420.739 487.284 420.829 487.066 420.99 486.905C421.15 486.744 421.368 486.653 421.595 486.653C421.822 486.653 422.039 486.744 422.2 486.905C422.36 487.066 422.45 487.284 422.45 487.512V546.728C422.453 550.703 424.027 554.514 426.826 557.326C429.626 560.138 433.422 561.72 437.382 561.726C441.795 561.729 446.027 563.49 449.147 566.622C452.268 569.754 454.022 574.002 454.025 578.431V613.248C454.025 613.476 453.935 613.694 453.775 613.856C453.614 614.017 453.396 614.107 453.17 614.107C452.943 614.107 452.725 614.017 452.565 613.856C452.404 613.694 452.314 613.476 452.314 613.248V578.385C452.311 574.411 450.737 570.601 447.937 567.791C445.138 564.981 441.341 563.401 437.382 563.398C432.976 563.392 428.751 561.635 425.633 558.511C422.514 555.387 420.754 551.15 420.739 546.728Z" fill="white" fill-opacity="0.1"/>
<path d="M8.87351 292.213V232.997C8.87351 232.769 8.96365 232.551 9.12409 232.39C9.28454 232.229 9.50214 232.138 9.72904 232.138C9.95594 232.138 10.1735 232.229 10.334 232.39C10.4944 232.551 10.5846 232.769 10.5846 232.997V292.213C10.5876 296.188 12.1614 299.999 14.9606 302.811C17.7599 305.623 21.5561 307.205 25.5164 307.211C29.9294 307.214 34.1609 308.975 37.2814 312.107C40.4019 315.239 42.1563 319.487 42.1593 323.916V358.733C42.1593 358.961 42.0691 359.179 41.9087 359.341C41.7483 359.502 41.5306 359.592 41.3037 359.592C41.0768 359.592 40.8592 359.502 40.6988 359.341C40.5384 359.179 40.4482 358.961 40.4482 358.733V323.87C40.4452 319.896 38.871 316.086 36.0714 313.276C33.2718 310.466 29.4756 308.886 25.5164 308.883C21.1102 308.877 16.8857 307.12 13.7668 303.996C10.6479 300.872 8.88858 296.635 8.87351 292.213Z" fill="white" fill-opacity="0.1"/>
<path d="M195.122 358.138C195.121 358.025 195.142 357.913 195.184 357.808C195.227 357.703 195.29 357.608 195.37 357.528C195.449 357.447 195.544 357.384 195.649 357.342C195.753 357.299 195.865 357.278 195.978 357.279H233.541C236.369 357.276 239.08 356.148 241.08 354.141C243.079 352.134 244.204 349.413 244.207 346.574V330.545C244.207 330.318 244.297 330.099 244.458 329.938C244.618 329.777 244.836 329.687 245.063 329.687C245.289 329.687 245.507 329.777 245.667 329.938C245.828 330.099 245.918 330.318 245.918 330.545V346.574C245.912 349.867 244.606 353.023 242.286 355.352C239.967 357.68 236.822 358.991 233.541 358.997H195.978C195.751 358.997 195.533 358.906 195.373 358.745C195.213 358.584 195.122 358.366 195.122 358.138Z" fill="white" fill-opacity="0.1"/>
<path d="M215.815 438.559V379.343C215.815 379.115 215.905 378.897 216.065 378.736C216.226 378.575 216.443 378.484 216.67 378.484C216.897 378.484 217.115 378.575 217.275 378.736C217.435 378.897 217.526 379.115 217.526 379.343V438.559C217.529 442.534 219.102 446.345 221.902 449.157C224.701 451.969 228.497 453.551 232.457 453.558C236.87 453.561 241.102 455.322 244.222 458.454C247.343 461.586 249.097 465.833 249.1 470.262V505.079C249.1 505.307 249.01 505.526 248.85 505.687C248.689 505.848 248.472 505.938 248.245 505.938C248.018 505.938 247.8 505.848 247.64 505.687C247.479 505.526 247.389 505.307 247.389 505.079V470.216C247.386 466.242 245.812 462.432 243.013 459.622C240.213 456.812 236.417 455.232 232.457 455.229C228.051 455.223 223.827 453.466 220.708 450.342C217.589 447.218 215.83 442.981 215.815 438.559Z" fill="white" fill-opacity="0.1"/>
<path d="M349.656 73.7179C349.655 73.6047 349.676 73.4924 349.718 73.3875C349.761 73.2826 349.824 73.1873 349.903 73.1073C349.983 73.0272 350.078 72.964 350.182 72.9214C350.287 72.8788 350.399 72.8577 350.512 72.8592H388.075C390.903 72.8562 393.614 71.7273 395.613 69.7204C397.613 67.7134 398.738 64.9923 398.741 62.1541V46.125C398.741 45.8972 398.831 45.6788 398.991 45.5178C399.152 45.3567 399.369 45.2663 399.596 45.2663C399.823 45.2663 400.041 45.3567 400.201 45.5178C400.362 45.6788 400.452 45.8972 400.452 46.125V62.1541C400.446 65.4469 399.14 68.603 396.82 70.9314C394.5 73.2598 391.356 74.5706 388.075 74.5766H350.512C350.285 74.5766 350.067 74.4861 349.907 74.3251C349.746 74.164 349.656 73.9456 349.656 73.7179Z" fill="white" fill-opacity="0.1"/>
<path d="M370.348 154.139V94.9227C370.348 94.695 370.438 94.4766 370.599 94.3155C370.759 94.1545 370.977 94.064 371.204 94.064C371.431 94.064 371.648 94.1545 371.809 94.3155C371.969 94.4766 372.059 94.695 372.059 94.9227V154.139C372.062 158.114 373.636 161.925 376.435 164.737C379.235 167.549 383.031 169.131 386.991 169.137C391.404 169.14 395.636 170.901 398.756 174.033C401.877 177.165 403.631 181.412 403.634 185.842V220.659C403.634 220.887 403.544 221.105 403.383 221.266C403.223 221.428 403.005 221.518 402.779 221.518C402.552 221.518 402.334 221.428 402.174 221.266C402.013 221.105 401.923 220.887 401.923 220.659V185.796C401.92 181.822 400.346 178.012 397.546 175.202C394.747 172.392 390.95 170.812 386.991 170.809C382.585 170.803 378.36 169.046 375.242 165.922C372.123 162.798 370.363 158.561 370.348 154.139Z" fill="white" fill-opacity="0.1"/>
<path d="M426.923 309.78C426.922 309.667 426.943 309.555 426.985 309.45C427.028 309.345 427.091 309.25 427.17 309.17C427.25 309.09 427.345 309.027 427.449 308.984C427.554 308.941 427.666 308.92 427.779 308.922H465.342C468.17 308.919 470.881 307.79 472.88 305.783C474.88 303.776 476.005 301.055 476.008 298.217V282.188C476.008 281.96 476.098 281.741 476.258 281.58C476.419 281.419 476.636 281.329 476.863 281.329C477.09 281.329 477.308 281.419 477.468 281.58C477.629 281.741 477.719 281.96 477.719 282.188V298.217C477.713 301.509 476.407 304.666 474.087 306.994C471.767 309.322 468.623 310.633 465.342 310.639H427.779C427.552 310.639 427.334 310.549 427.174 310.388C427.013 310.227 426.923 310.008 426.923 309.78Z" fill="white" fill-opacity="0.1"/>
<path d="M447.615 390.201V330.985C447.615 330.758 447.705 330.539 447.866 330.378C448.026 330.217 448.244 330.127 448.471 330.127C448.698 330.127 448.915 330.217 449.076 330.378C449.236 330.539 449.326 330.758 449.326 330.985V390.201C449.329 394.176 450.903 397.988 453.702 400.799C456.502 403.611 460.298 405.194 464.258 405.2C468.671 405.203 472.903 406.964 476.023 410.096C479.144 413.228 480.898 417.475 480.901 421.904V456.722C480.901 456.95 480.811 457.168 480.65 457.329C480.49 457.49 480.272 457.58 480.045 457.58C479.819 457.58 479.601 457.49 479.441 457.329C479.28 457.168 479.19 456.95 479.19 456.722V421.859C479.187 417.885 477.613 414.074 474.813 411.264C472.014 408.454 468.217 406.874 464.258 406.871C459.852 406.865 455.627 405.108 452.509 401.984C449.39 398.86 447.63 394.624 447.615 390.201Z" fill="white" fill-opacity="0.1"/>
<path d="M15.057 55.2653C15.0555 55.1522 15.0766 55.0398 15.1191 54.9349C15.1615 54.83 15.2244 54.7348 15.3042 54.6547C15.3839 54.5747 15.4789 54.5115 15.5833 54.4689C15.6878 54.4263 15.7998 54.4051 15.9126 54.4066L53.476 54.4067C56.3038 54.4036 59.0149 53.2748 61.0144 51.2678C63.0139 49.2609 64.1386 46.5397 64.1416 43.7015V27.6724C64.1416 27.4447 64.2318 27.2263 64.3922 27.0652C64.5527 26.9042 64.7703 26.8137 64.9972 26.8137C65.2241 26.8137 65.4417 26.9042 65.6021 27.0652C65.7626 27.2263 65.8527 27.4447 65.8527 27.6724V43.7015C65.8466 46.9943 64.5407 50.1505 62.221 52.4789C59.9012 54.8072 56.7567 56.118 53.476 56.124H15.9126C15.6857 56.124 15.4681 56.0336 15.3076 55.8725C15.1472 55.7115 15.057 55.4931 15.057 55.2653Z" fill="white" fill-opacity="0.1"/>
<path d="M35.7492 135.686V76.4702C35.7492 76.2424 35.8393 76.024 35.9997 75.863C36.1602 75.7019 36.3778 75.6115 36.6047 75.6115C36.8316 75.6115 37.0492 75.7019 37.2096 75.863C37.3701 76.024 37.4602 76.2424 37.4602 76.4702V135.686C37.4632 139.661 39.037 143.473 41.8363 146.284C44.6356 149.096 48.4317 150.679 52.392 150.685C56.8051 150.688 61.0365 152.449 64.157 155.581C67.2775 158.713 69.0319 162.96 69.0349 167.389V202.207C69.0349 202.434 68.9448 202.653 68.7844 202.814C68.6239 202.975 68.4063 203.065 68.1794 203.065C67.9525 203.065 67.7349 202.975 67.5745 202.814C67.414 202.653 67.3239 202.434 67.3239 202.207V167.343C67.3208 163.37 65.7467 159.559 62.9471 156.749C60.1475 153.939 56.3513 152.359 52.392 152.356C47.9858 152.35 43.7613 150.593 40.6425 147.469C37.5236 144.345 35.7642 140.109 35.7492 135.686Z" fill="white" fill-opacity="0.1"/>
<path d="M221.997 201.612C221.996 201.498 222.017 201.386 222.059 201.281C222.102 201.176 222.165 201.081 222.244 201.001C222.324 200.921 222.419 200.858 222.524 200.815C222.628 200.773 222.74 200.751 222.853 200.753H260.416C263.244 200.75 265.955 199.621 267.955 197.614C269.954 195.607 271.079 192.886 271.082 190.048V174.019C271.082 173.791 271.172 173.573 271.332 173.412C271.493 173.251 271.711 173.16 271.937 173.16C272.164 173.16 272.382 173.251 272.542 173.412C272.703 173.573 272.793 173.791 272.793 174.019V190.048C272.787 193.341 271.481 196.497 269.161 198.825C266.841 201.154 263.697 202.464 260.416 202.47H222.853C222.626 202.47 222.408 202.38 222.248 202.219C222.087 202.058 221.997 201.839 221.997 201.612Z" fill="white" fill-opacity="0.1"/>
<path d="M242.689 282.032V222.816C242.689 222.589 242.78 222.37 242.94 222.209C243.1 222.048 243.318 221.958 243.545 221.958C243.772 221.958 243.989 222.048 244.15 222.209C244.31 222.37 244.401 222.589 244.401 222.816V282.032C244.404 286.007 245.977 289.819 248.777 292.631C251.576 295.443 255.372 297.025 259.332 297.031C263.745 297.034 267.977 298.795 271.097 301.927C274.218 305.059 275.972 309.306 275.975 313.736V348.553C275.975 348.781 275.885 348.999 275.725 349.16C275.564 349.321 275.347 349.412 275.12 349.412C274.893 349.412 274.675 349.321 274.515 349.16C274.354 348.999 274.264 348.781 274.264 348.553V313.69C274.261 309.716 272.687 305.906 269.887 303.096C267.088 300.286 263.292 298.706 259.332 298.703C254.926 298.697 250.702 296.939 247.583 293.815C244.464 290.692 242.705 286.455 242.689 282.032Z" fill="white" fill-opacity="0.1"/>
<path d="M450.439 495.576C450.438 495.463 450.459 495.35 450.501 495.246C450.544 495.141 450.607 495.045 450.686 494.965C450.766 494.885 450.861 494.822 450.965 494.779C451.07 494.737 451.182 494.716 451.295 494.717H488.858C491.686 494.714 494.397 493.585 496.397 491.578C498.396 489.571 499.521 486.85 499.524 484.012V467.983C499.524 467.755 499.614 467.537 499.774 467.376C499.935 467.215 500.152 467.124 500.379 467.124C500.606 467.124 500.824 467.215 500.984 467.376C501.145 467.537 501.235 467.755 501.235 467.983V484.012C501.229 487.305 499.923 490.461 497.603 492.789C495.283 495.118 492.139 496.429 488.858 496.435H451.295C451.068 496.435 450.85 496.344 450.69 496.183C450.529 496.022 450.439 495.804 450.439 495.576Z" fill="white" fill-opacity="0.1"/>
<path d="M471.131 575.997V516.781C471.131 516.553 471.221 516.335 471.382 516.174C471.542 516.013 471.76 515.922 471.987 515.922C472.214 515.922 472.431 516.013 472.592 516.174C472.752 516.335 472.842 516.553 472.842 516.781V575.997C472.845 579.972 474.419 583.783 477.218 586.595C480.018 589.407 483.814 590.989 487.774 590.995C492.187 590.998 496.419 592.759 499.539 595.891C502.66 599.023 504.414 603.27 504.417 607.7V642.517C504.417 642.745 504.327 642.963 504.166 643.125C504.006 643.286 503.788 643.376 503.562 643.376C503.335 643.376 503.117 643.286 502.957 643.125C502.796 642.963 502.706 642.745 502.706 642.517V607.654C502.703 603.68 501.129 599.87 498.329 597.06C495.53 594.25 491.733 592.67 487.774 592.667C483.368 592.661 479.143 590.904 476.025 587.78C472.906 584.656 471.146 580.419 471.131 575.997Z" fill="white" fill-opacity="0.1"/>
<path d="M38.5733 241.061C38.5718 240.948 38.5929 240.836 38.6353 240.731C38.6778 240.626 38.7407 240.531 38.8205 240.451C38.9002 240.371 38.9951 240.308 39.0996 240.265C39.2041 240.222 39.3161 240.201 39.4289 240.203H76.9923C79.8201 240.2 82.5312 239.071 84.5307 237.064C86.5302 235.057 87.6549 232.336 87.6579 229.498V213.469C87.6579 213.241 87.748 213.022 87.9084 212.861C88.0689 212.7 88.2865 212.61 88.5134 212.61C88.7403 212.61 88.958 212.7 89.1184 212.861C89.2789 213.022 89.369 213.241 89.369 213.469V229.498C89.3629 232.79 88.057 235.947 85.7373 238.275C83.4175 240.603 80.273 241.914 76.9923 241.92H39.4289C39.202 241.92 38.9843 241.83 38.8239 241.669C38.6635 241.508 38.5733 241.289 38.5733 241.061Z" fill="white" fill-opacity="0.1"/>
<path d="M59.2654 321.482V262.266C59.2654 262.039 59.3556 261.82 59.516 261.659C59.6765 261.498 59.8941 261.408 60.121 261.408C60.3479 261.408 60.5655 261.498 60.7259 261.659C60.8864 261.82 60.9765 262.039 60.9765 262.266V321.482C60.9795 325.457 62.5533 329.269 65.3526 332.081C68.1518 334.892 71.9481 336.475 75.9083 336.481C80.3214 336.484 84.5528 338.245 87.6733 341.377C90.7938 344.509 92.5482 348.756 92.5512 353.185V388.003C92.5512 388.231 92.461 388.449 92.3006 388.61C92.1402 388.771 91.9226 388.862 91.6957 388.862C91.4688 388.862 91.2512 388.771 91.0908 388.61C90.9303 388.449 90.8401 388.231 90.8401 388.003V353.14C90.8371 349.166 89.263 345.355 86.4634 342.546C83.6638 339.736 79.8676 338.156 75.9083 338.153C71.5021 338.146 67.2776 336.389 64.1587 333.265C61.0399 330.141 59.2805 325.905 59.2654 321.482Z" fill="white" fill-opacity="0.1"/>
<path d="M245.513 387.407C245.512 387.294 245.533 387.182 245.575 387.077C245.618 386.972 245.681 386.877 245.761 386.797C245.84 386.717 245.935 386.653 246.04 386.611C246.144 386.568 246.256 386.547 246.369 386.548H283.932C286.76 386.545 289.471 385.417 291.471 383.41C293.47 381.403 294.595 378.682 294.598 375.843V359.814C294.598 359.587 294.688 359.368 294.849 359.207C295.009 359.046 295.227 358.956 295.454 358.956C295.68 358.956 295.898 359.046 296.059 359.207C296.219 359.368 296.309 359.587 296.309 359.814V375.843C296.303 379.136 294.997 382.292 292.677 384.621C290.358 386.949 287.213 388.26 283.932 388.266H246.369C246.142 388.266 245.924 388.175 245.764 388.014C245.604 387.853 245.513 387.635 245.513 387.407Z" fill="white" fill-opacity="0.1"/>
<path d="M266.206 467.828V408.612C266.206 408.384 266.296 408.166 266.456 408.005C266.617 407.844 266.834 407.753 267.061 407.753C267.288 407.753 267.506 407.844 267.666 408.005C267.826 408.166 267.917 408.384 267.917 408.612V467.828C267.92 471.803 269.493 475.614 272.293 478.426C275.092 481.238 278.888 482.821 282.848 482.827C287.261 482.83 291.493 484.591 294.613 487.723C297.734 490.855 299.488 495.102 299.491 499.531V534.349C299.491 534.576 299.401 534.795 299.241 534.956C299.08 535.117 298.863 535.207 298.636 535.207C298.409 535.207 298.191 535.117 298.031 534.956C297.87 534.795 297.78 534.576 297.78 534.349L297.78 499.485C297.777 495.511 296.203 491.701 293.404 488.891C290.604 486.081 286.808 484.501 282.848 484.498C278.442 484.492 274.218 482.735 271.099 479.611C267.98 476.487 266.221 472.25 266.206 467.828Z" fill="white" fill-opacity="0.1"/>
<path d="M400.047 102.987C400.046 102.874 400.067 102.761 400.109 102.656C400.152 102.552 400.214 102.456 400.294 102.376C400.374 102.296 400.469 102.233 400.573 102.19C400.678 102.148 400.79 102.127 400.903 102.128H438.466C441.294 102.125 444.005 100.996 446.004 98.9894C448.004 96.9825 449.129 94.2613 449.132 91.4231V75.394C449.132 75.1663 449.222 74.9478 449.382 74.7868C449.543 74.6258 449.76 74.5353 449.987 74.5353C450.214 74.5353 450.432 74.6258 450.592 74.7868C450.753 74.9478 450.843 75.1663 450.843 75.394V91.4231C450.837 94.7159 449.531 97.8721 447.211 100.2C444.891 102.529 441.747 103.84 438.466 103.846H400.903C400.676 103.846 400.458 103.755 400.298 103.594C400.137 103.433 400.047 103.215 400.047 102.987Z" fill="white" fill-opacity="0.1"/>
<path d="M477.314 339.049C477.313 338.936 477.334 338.824 477.376 338.719C477.419 338.614 477.481 338.519 477.561 338.439C477.641 338.359 477.736 338.296 477.84 338.253C477.945 338.21 478.057 338.189 478.17 338.191H515.733C518.561 338.188 521.272 337.059 523.271 335.052C525.271 333.045 526.396 330.324 526.399 327.486V311.457C526.399 311.229 526.489 311.01 526.649 310.849C526.81 310.688 527.027 310.598 527.254 310.598C527.481 310.598 527.699 310.688 527.859 310.849C528.02 311.01 528.11 311.229 528.11 311.457V327.486C528.104 330.778 526.798 333.935 524.478 336.263C522.158 338.591 519.014 339.902 515.733 339.908H478.17C477.943 339.908 477.725 339.818 477.565 339.657C477.404 339.496 477.314 339.277 477.314 339.049Z" fill="white" fill-opacity="0.1"/>
<path d="M498.006 419.47V360.254C498.006 360.027 498.096 359.808 498.257 359.647C498.417 359.486 498.635 359.396 498.862 359.396C499.089 359.396 499.306 359.486 499.467 359.647C499.627 359.808 499.717 360.027 499.717 360.254V419.47C499.72 423.445 501.294 427.257 504.093 430.068C506.893 432.88 510.689 434.463 514.649 434.469C519.062 434.472 523.294 436.233 526.414 439.365C529.535 442.497 531.289 446.744 531.292 451.173V485.991C531.292 486.219 531.202 486.437 531.041 486.598C530.881 486.759 530.663 486.85 530.436 486.85C530.209 486.85 529.992 486.759 529.831 486.598C529.671 486.437 529.581 486.219 529.581 485.991V451.128C529.578 447.154 528.004 443.343 525.204 440.533C522.405 437.723 518.608 436.143 514.649 436.14C510.243 436.134 506.018 434.377 502.9 431.253C499.781 428.129 498.021 423.893 498.006 419.47Z" fill="white" fill-opacity="0.1"/>
<path d="M65.4481 84.5344C65.4466 84.4212 65.4676 84.3088 65.5101 84.2039C65.5525 84.0991 65.6155 84.0038 65.6953 83.9238C65.775 83.8437 65.8699 83.7805 65.9744 83.7379C66.0789 83.6953 66.1908 83.6741 66.3036 83.6757H103.867C106.695 83.6727 109.406 82.5438 111.405 80.5368C113.405 78.5299 114.53 75.8088 114.533 72.9705V56.9415C114.533 56.7137 114.623 56.4953 114.783 56.3343C114.944 56.1732 115.161 56.0827 115.388 56.0827C115.615 56.0827 115.833 56.1732 115.993 56.3343C116.154 56.4953 116.244 56.7137 116.244 56.9415V72.9705C116.238 76.2633 114.932 79.4195 112.612 81.7479C110.292 84.0763 107.148 85.387 103.867 85.3931H66.3036C66.0767 85.3931 65.8591 85.3026 65.6987 85.1416C65.5382 84.9805 65.4481 84.7621 65.4481 84.5344Z" fill="white" fill-opacity="0.1"/>
<path d="M86.1402 164.955V105.739C86.1402 105.511 86.2304 105.293 86.3908 105.132C86.5512 104.971 86.7689 104.881 86.9958 104.881C87.2227 104.881 87.4403 104.971 87.6007 105.132C87.7611 105.293 87.8513 105.511 87.8513 105.739V164.955C87.8543 168.93 89.4281 172.742 92.2273 175.553C95.0266 178.365 98.8228 179.948 102.783 179.954C107.196 179.957 111.428 181.718 114.548 184.85C117.669 187.982 119.423 192.229 119.426 196.658V231.476C119.426 231.703 119.336 231.922 119.175 232.083C119.015 232.244 118.797 232.334 118.57 232.334C118.344 232.334 118.126 232.244 117.966 232.083C117.805 231.922 117.715 231.703 117.715 231.476V196.613C117.712 192.639 116.138 188.828 113.338 186.018C110.539 183.208 106.742 181.628 102.783 181.625C98.3769 181.619 94.1524 179.862 91.0335 176.738C87.9147 173.614 86.1553 169.378 86.1402 164.955Z" fill="white" fill-opacity="0.1"/>
<path d="M293.081 311.301V252.086C293.081 251.858 293.172 251.639 293.332 251.478C293.492 251.317 293.71 251.227 293.937 251.227C294.164 251.227 294.381 251.317 294.542 251.478C294.702 251.639 294.793 251.858 294.793 252.086V311.301C294.796 315.276 296.369 319.088 299.169 321.9C301.968 324.712 305.764 326.294 309.724 326.3C314.137 326.303 318.369 328.064 321.489 331.196C324.61 334.328 326.364 338.575 326.367 343.005V377.822C326.367 378.05 326.277 378.268 326.117 378.429C325.956 378.59 325.739 378.681 325.512 378.681C325.285 378.681 325.067 378.59 324.907 378.429C324.746 378.268 324.656 378.05 324.656 377.822V342.959C324.653 338.985 323.079 335.175 320.279 332.365C317.48 329.555 313.684 327.975 309.724 327.972C305.318 327.966 301.094 326.209 297.975 323.085C294.856 319.961 293.097 315.724 293.081 311.301Z" fill="white" fill-opacity="0.1"/>
</svg>
